<svg xmlns:dc="http://purl.org/dc/elements/1.1/" xmlns:cc="http://creativecommons.org/ns#" xmlns:rdf="http://www.w3.org/1999/02/22-rdf-syntax-ns#" xmlns:svg="http://www.w3.org/2000/svg" xmlns="http://www.w3.org/2000/svg" xmlns:sodipodi="http://sodipodi.sourceforge.net/DTD/sodipodi-0.dtd" xmlns:inkscape="http://www.inkscape.org/namespaces/inkscape" viewBox="0 0 8.4666665 10.583333625" version="1.1" x="0px" y="0px"><g transform="translate(0,-288.53332)"><path style="color:#000000;font-style:normal;font-variant:normal;font-weight:normal;font-stretch:normal;font-size:medium;line-height:normal;font-family:sans-serif;text-indent:0;text-align:start;text-decoration:none;text-decoration-line:none;text-decoration-style:solid;text-decoration-color:#000000;letter-spacing:normal;word-spacing:normal;text-transform:none;direction:ltr;block-progression:tb;writing-mode:lr-tb;baseline-shift:baseline;text-anchor:start;white-space:normal;clip-rule:nonzero;display:inline;overflow:visible;visibility:visible;opacity:1;isolation:auto;mix-blend-mode:normal;color-interpolation:sRGB;color-interpolation-filters:linearRGB;solid-color:#000000;solid-opacity:1;fill:#000000;fill-opacity:1;fill-rule:nonzero;stroke:none;stroke-width:0.26458332;stroke-linecap:round;stroke-linejoin:round;stroke-miterlimit:4;stroke-dasharray:none;stroke-dashoffset:0;stroke-opacity:1;color-rendering:auto;image-rendering:auto;shape-rendering:auto;text-rendering:auto;enable-background:accumulate" d="m 4.203125,291.70898 c -0.4882262,0.007 -0.9751608,0.18175 -1.3652344,0.52344 -0.780153,0.68339 -0.9499064,1.83525 -0.4003906,2.71485 0.5495079,0.87959 1.6589375,1.2315 2.6152344,0.83007 0.9562914,-0.40142 1.4812414,-1.44095 1.2382812,-2.44922 a 0.13264005,0.13264005 0 1 0 -0.2578125,0.0625 c 0.2129949,0.88392 -0.2456366,1.79067 -1.0839843,2.14258 -0.8383526,0.35192 -1.8053748,0.0445 -2.2871094,-0.72656 -0.4817416,-0.77111 -0.3323708,-1.7759 0.3515625,-2.375 0.6839282,-0.5991 1.6974646,-0.61422 2.3984375,-0.0352 a 0.13241144,0.13241144 0 1 0 0.1699218,-0.20312 c -0.3997948,-0.33027 -0.89068,-0.49144 -1.3789062,-0.48438 z"/><path style="color:#000000;font-style:normal;font-variant:normal;font-weight:normal;font-stretch:normal;font-size:medium;line-height:normal;font-family:sans-serif;text-indent:0;text-align:start;text-decoration:none;text-decoration-line:none;text-decoration-style:solid;text-decoration-color:#000000;letter-spacing:normal;word-spacing:normal;text-transform:none;direction:ltr;block-progression:tb;writing-mode:lr-tb;baseline-shift:baseline;text-anchor:start;white-space:normal;clip-rule:nonzero;display:inline;overflow:visible;visibility:visible;opacity:1;isolation:auto;mix-blend-mode:normal;color-interpolation:sRGB;color-interpolation-filters:linearRGB;solid-color:#000000;solid-opacity:1;fill:#000000;fill-opacity:1;fill-rule:nonzero;stroke:none;stroke-width:0.26458332;stroke-linecap:round;stroke-linejoin:round;stroke-miterlimit:4;stroke-dasharray:none;stroke-dashoffset:0;stroke-opacity:1;color-rendering:auto;image-rendering:auto;shape-rendering:auto;text-rendering:auto;enable-background:accumulate" d="m 1.3886719,288.92969 c -0.2542228,0 -0.46289065,0.20866 -0.46289065,0.46289 l 0,6.74804 c 0,0.25423 0.20866785,0.4629 0.46289065,0.4629 l 5.6894531,0 c 0.2542227,0 0.4628906,-0.20867 0.4628906,-0.4629 l 0,-6.74804 c 0,-0.25423 -0.2086679,-0.46289 -0.4628906,-0.46289 l -5.6894531,0 z m 0,0.26562 5.6894531,0 c 0.1122251,0 0.1972656,0.085 0.1972656,0.19727 l 0,6.74804 c 0,0.11224 -0.08504,0.19727 -0.1972656,0.19727 l -5.6894531,0 c -0.1122252,0 -0.1972657,-0.085 -0.1972657,-0.19727 l 0,-6.74804 c 0,-0.11223 0.08504,-0.19727 0.1972657,-0.19727 z"/><path style="color:#000000;font-style:normal;font-variant:normal;font-weight:normal;font-stretch:normal;font-size:medium;line-height:normal;font-family:sans-serif;text-indent:0;text-align:start;text-decoration:none;text-decoration-line:none;text-decoration-style:solid;text-decoration-color:#000000;letter-spacing:normal;word-spacing:normal;text-transform:none;direction:ltr;block-progression:tb;writing-mode:lr-tb;baseline-shift:baseline;text-anchor:start;white-space:normal;clip-rule:nonzero;display:inline;overflow:visible;visibility:visible;opacity:1;isolation:auto;mix-blend-mode:normal;color-interpolation:sRGB;color-interpolation-filters:linearRGB;solid-color:#000000;solid-opacity:1;fill:#000000;fill-opacity:1;fill-rule:evenodd;stroke:none;stroke-width:0.26458332px;stroke-linecap:butt;stroke-linejoin:miter;stroke-miterlimit:4;stroke-dasharray:none;stroke-dashoffset:0;stroke-opacity:1;color-rendering:auto;image-rendering:auto;shape-rendering:auto;text-rendering:auto;enable-background:accumulate" d="m 1.4550781,290.7832 0,0.26368 5.953125,0 0,-0.26368 -5.953125,0 z"/><path style="color:#000000;font-style:normal;font-variant:normal;font-weight:normal;font-stretch:normal;font-size:medium;line-height:normal;font-family:sans-serif;text-indent:0;text-align:start;text-decoration:none;text-decoration-line:none;text-decoration-style:solid;text-decoration-color:#000000;letter-spacing:normal;word-spacing:normal;text-transform:none;direction:ltr;block-progression:tb;writing-mode:lr-tb;baseline-shift:baseline;text-anchor:start;white-space:normal;clip-rule:nonzero;display:inline;overflow:visible;visibility:visible;opacity:1;isolation:auto;mix-blend-mode:normal;color-interpolation:sRGB;color-interpolation-filters:linearRGB;solid-color:#000000;solid-opacity:1;fill:#000000;fill-opacity:1;fill-rule:nonzero;stroke:none;stroke-width:0.26458332;stroke-linecap:round;stroke-linejoin:round;stroke-miterlimit:4;stroke-dasharray:none;stroke-dashoffset:0;stroke-opacity:1;color-rendering:auto;image-rendering:auto;shape-rendering:auto;text-rendering:auto;enable-background:accumulate" d="m 5.6230469,289.5918 c -0.2542276,0 -0.4628906,0.20866 -0.4628907,0.46289 0,0.25423 0.2086679,0.46289 0.4628907,0.46289 l 0.9257812,0 c 0.2542228,0 0.4628907,-0.20866 0.4628907,-0.46289 0,-0.25423 -0.2086631,-0.46289 -0.4628907,-0.46289 l -0.9257812,0 z m 0,0.26367 0.9257812,0 c 0.1122204,0 0.1972657,0.087 0.1972657,0.19922 0,0.11223 -0.08504,0.19922 -0.1972657,0.19922 l -0.9257812,0 c -0.1122252,0 -0.1992188,-0.087 -0.1992188,-0.19922 0,-0.11222 0.086998,-0.19922 0.1992188,-0.19922 z"/><path style="color:#000000;font-style:normal;font-variant:normal;font-weight:normal;font-stretch:normal;font-size:medium;line-height:normal;font-family:sans-serif;text-indent:0;text-align:start;text-decoration:none;text-decoration-line:none;text-decoration-style:solid;text-decoration-color:#000000;letter-spacing:normal;word-spacing:normal;text-transform:none;direction:ltr;block-progression:tb;writing-mode:lr-tb;baseline-shift:baseline;text-anchor:start;white-space:normal;clip-rule:nonzero;display:inline;overflow:visible;visibility:visible;opacity:1;isolation:auto;mix-blend-mode:normal;color-interpolation:sRGB;color-interpolation-filters:linearRGB;solid-color:#000000;solid-opacity:1;fill:#000000;fill-opacity:1;fill-rule:nonzero;stroke:none;stroke-width:0.26458332;stroke-linecap:round;stroke-linejoin:round;stroke-miterlimit:4;stroke-dasharray:none;stroke-dashoffset:0;stroke-opacity:1;color-rendering:auto;image-rendering:auto;shape-rendering:auto;text-rendering:auto;enable-background:accumulate" d="m 6.6152344,291.31055 c -0.2177409,0 -0.3984501,0.18069 -0.3984375,0.39843 -4.3e-6,0.21774 0.1807022,0.39649 0.3984375,0.39649 0.2177352,0 0.3964887,-0.17875 0.3964844,-0.39649 1.25e-5,-0.21774 -0.1787435,-0.39843 -0.3964844,-0.39843 z m 0,0.26562 c 0.074744,0 0.1308637,0.0581 0.1308594,0.13281 1.4e-6,0.0747 -0.056118,0.13282 -0.1308594,0.13282 -0.074742,0 -0.132814,-0.0581 -0.1328125,-0.13282 -4.3e-6,-0.0747 0.058068,-0.13281 0.1328125,-0.13281 z"/><path style="color:#000000;font-style:normal;font-variant:normal;font-weight:normal;font-stretch:normal;font-size:medium;line-height:normal;font-family:sans-serif;text-indent:0;text-align:start;text-decoration:none;text-decoration-line:none;text-decoration-style:solid;text-decoration-color:#000000;letter-spacing:normal;word-spacing:normal;text-transform:none;direction:ltr;block-progression:tb;writing-mode:lr-tb;baseline-shift:baseline;text-anchor:start;white-space:normal;clip-rule:nonzero;display:inline;overflow:visible;visibility:visible;opacity:1;isolation:auto;mix-blend-mode:normal;color-interpolation:sRGB;color-interpolation-filters:linearRGB;solid-color:#000000;solid-opacity:1;fill:#000000;fill-opacity:1;fill-rule:evenodd;stroke:none;stroke-width:0.26458335px;stroke-linecap:butt;stroke-linejoin:round;stroke-miterlimit:4;stroke-dasharray:none;stroke-dashoffset:0;stroke-opacity:1;color-rendering:auto;image-rendering:auto;shape-rendering:auto;text-rendering:auto;enable-background:accumulate" d="m 3.1757812,293.95703 a 0.1323049,0.1323049 0 0 0 -0.078125,0.0274 c 0,0 -0.077547,0.0604 -0.1777343,0.12109 -0.100187,0.0607 -0.2291756,0.11516 -0.2734375,0.11719 l 0.011719,0.26367 c 0.1519946,-0.007 0.2860628,-0.085 0.4003907,-0.1543 0.067683,-0.041 0.082724,-0.0557 0.1191406,-0.082 0.036482,0.0272 0.052548,0.0417 0.1210937,0.084 0.1149132,0.0709 0.2505857,0.15235 0.4082031,0.15235 0.1576174,0 0.291337,-0.0815 0.40625,-0.15235 0.068546,-0.0423 0.084612,-0.0568 0.1210938,-0.084 0.036569,0.0272 0.051342,0.0422 0.1191406,0.084 0.1149131,0.0709 0.2486326,0.15235 0.40625,0.15235 0.1576174,0 0.29329,-0.0815 0.4082032,-0.15235 0.068546,-0.0423 0.084612,-0.0568 0.1210937,-0.084 0.036416,0.0263 0.051458,0.041 0.1191406,0.082 0.1143259,0.0693 0.2484153,0.14733 0.4003907,0.1543 l 0.011719,-0.26367 c -0.044281,-0.002 -0.1732484,-0.0565 -0.2734375,-0.11719 -0.1001891,-0.0607 -0.1777344,-0.12109 -0.1777344,-0.12109 a 0.1323049,0.1323049 0 0 0 -0.1640625,0.002 c 0,0 -0.078183,0.0616 -0.1777343,0.12305 -0.099551,0.0614 -0.2287354,0.11328 -0.2675782,0.11328 -0.038843,0 -0.1680272,-0.0519 -0.2675781,-0.11328 -0.099551,-0.0614 -0.1757813,-0.12305 -0.1757813,-0.12305 a 0.1323049,0.1323049 0 0 0 -0.1660156,0 c 0,0 -0.07623,0.0616 -0.1757812,0.12305 -0.099551,0.0614 -0.2287355,0.11328 -0.2675782,0.11328 -0.038843,0 -0.1699802,-0.0519 -0.2695312,-0.11328 -0.099551,-0.0614 -0.1757812,-0.12305 -0.1757812,-0.12305 a 0.1323049,0.1323049 0 0 0 -0.085938,-0.0293 z"/></g><text x="0" y="23.4666669" fill="#000000" font-size="5px" font-weight="bold" font-family="'Helvetica Neue', Helvetica, Arial-Unicode, Arial, Sans-serif">Created by anbileru adaleru</text><text x="0" y="28.4666669" fill="#000000" font-size="5px" font-weight="bold" font-family="'Helvetica Neue', Helvetica, Arial-Unicode, Arial, Sans-serif">from the Noun Project</text></svg>