<svg xmlns="http://www.w3.org/2000/svg" xmlns:xlink="http://www.w3.org/1999/xlink" version="1.1" x="0px" y="0px" viewBox="0 0 64 80" style="enable-background:new 0 0 64 64;" xml:space="preserve"><path d="M43.535,37H48c0.552,0,1-0.448,1-1v-2.424c1.763-0.774,3-2.531,3-4.576c0-2.428-1.742-4.453-4.04-4.903  c-0.39-8.651-6.301-15.219-14.312-16.014C33.108,8.028,32.558,8,32,8c-0.561,0-1.114,0.028-1.657,0.083  C22.337,8.882,16.43,15.449,16.04,24.097C13.742,24.547,12,26.572,12,29c0,2.757,2.243,5,5,5c0.408,0,0.813-0.058,1.211-0.16  c1.578,2.865,3.924,5.133,6.789,6.543v0.232c-2.702,0.512-6.344,1.601-6.916,3.787L7.592,49.087C7.232,49.248,7,49.605,7,50v12h2  V50.648l9.385-4.19c1.167,2.649,4.973,6.568,9.907,7.991c0.108,0.032,0.218,0.06,0.327,0.089c0.269,0.071,0.538,0.138,0.813,0.193  c0.213,0.043,0.429,0.074,0.645,0.107c0.2,0.03,0.397,0.066,0.599,0.087C31.112,54.971,31.553,55,32,55s0.888-0.029,1.324-0.075  c0.202-0.021,0.4-0.057,0.599-0.087c0.216-0.033,0.432-0.064,0.645-0.107c0.275-0.055,0.544-0.122,0.813-0.193  c0.109-0.029,0.219-0.057,0.327-0.089c4.934-1.423,8.74-5.342,9.907-7.991L55,50.648V62h2V50c0-0.395-0.232-0.752-0.592-0.913  l-10.492-4.685c-0.572-2.186-4.214-3.275-6.916-3.787v-0.232C40.712,39.54,42.245,38.401,43.535,37z M27,41.454V41.22  c0.033,0.011,0.068,0.018,0.102,0.029c0.062,0.02,0.127,0.034,0.19,0.053c0.397,0.121,0.799,0.226,1.208,0.314  c0.163,0.036,0.329,0.066,0.494,0.096c0.322,0.059,0.646,0.109,0.972,0.149c0.185,0.023,0.37,0.047,0.557,0.064  c0.417,0.037,0.836,0.058,1.256,0.063C31.854,41.99,31.925,42,32,42s0.146-0.01,0.22-0.011c0.42-0.005,0.839-0.026,1.256-0.063  c0.188-0.017,0.372-0.041,0.557-0.064c0.327-0.04,0.65-0.089,0.972-0.149c0.165-0.031,0.331-0.06,0.494-0.096  c0.409-0.089,0.811-0.194,1.208-0.314c0.063-0.019,0.128-0.033,0.19-0.053c0.034-0.011,0.069-0.018,0.102-0.029v0.233v3.244l-5,7.5  l-5-7.5V41.454z M47,35h-1.909c0.248-0.374,0.479-0.762,0.698-1.16C46.187,33.942,46.592,34,47,34V35z M18.051,23.839  c0.029-0.439,0.076-0.872,0.137-1.298c0.008-0.054,0.014-0.109,0.022-0.163c0.069-0.448,0.154-0.889,0.257-1.32  c0.005-0.023,0.01-0.046,0.016-0.069c1.23-5.073,4.77-8.948,9.438-10.383c0.058-0.018,0.118-0.03,0.177-0.046  c0.366-0.107,0.737-0.205,1.117-0.281c0.172-0.034,0.349-0.053,0.524-0.081c0.277-0.045,0.552-0.096,0.836-0.124  C31.041,10.026,31.517,10,32,10c0.497,0,0.987,0.025,1.468,0.074c0.016,0.002,0.032,0.005,0.048,0.007  c5.253,0.554,9.471,3.97,11.378,8.874c0.023,0.06,0.047,0.12,0.069,0.18c0.12,0.321,0.224,0.653,0.324,0.987  c0.055,0.187,0.112,0.372,0.16,0.562c0.054,0.208,0.099,0.422,0.145,0.635c0.066,0.309,0.131,0.618,0.181,0.936  c0.016,0.102,0.027,0.206,0.041,0.308c0.057,0.414,0.105,0.831,0.133,1.258c0,0.007,0,0.013,0.001,0.02  c-3.295,0.665-7.484-0.922-10.677-4.114c-1.002-1.002-1.865-2.128-2.564-3.345c-0.357-0.621-1.377-0.621-1.734,0  c-0.699,1.217-1.562,2.343-2.564,3.345c-3.063,3.062-7.12,4.673-10.361,4.176C18.05,23.882,18.05,23.86,18.051,23.839z M50,29  c0,1.761-1.557,3.178-3.321,2.981c0.157-0.391,0.293-0.794,0.423-1.201c0.027-0.085,0.058-0.168,0.084-0.253  c0.108-0.358,0.201-0.723,0.288-1.093c0.037-0.157,0.076-0.314,0.109-0.472c0.066-0.319,0.124-0.641,0.174-0.968  c0.038-0.24,0.069-0.48,0.098-0.722c0.031-0.267,0.06-0.534,0.08-0.806c0.008-0.103,0.024-0.204,0.031-0.307  C49.147,26.562,50,27.684,50,29z M14,29c0-1.316,0.853-2.438,2.035-2.841c0.006,0.103,0.023,0.205,0.031,0.307  c0.02,0.272,0.049,0.539,0.08,0.806c0.029,0.242,0.06,0.482,0.098,0.722c0.05,0.326,0.107,0.649,0.174,0.968  c0.033,0.159,0.072,0.315,0.109,0.472c0.087,0.369,0.18,0.735,0.288,1.093c0.026,0.085,0.057,0.168,0.084,0.253  c0.13,0.407,0.266,0.81,0.423,1.201C15.562,32.178,14,30.761,14,29z M19.487,31.917c-0.189-0.411-0.365-0.83-0.518-1.261  c-0.05-0.141-0.094-0.285-0.141-0.428c-0.134-0.414-0.254-0.834-0.355-1.261c-0.034-0.144-0.069-0.288-0.099-0.434  c-0.093-0.445-0.165-0.897-0.223-1.353c-0.017-0.135-0.04-0.267-0.054-0.403c-0.029-0.285-0.032-0.574-0.047-0.861  c3.832,0.468,8.312-1.312,11.774-4.774c0.743-0.743,1.418-1.547,2.017-2.401c0.6,0.854,1.274,1.658,2.018,2.401  c3.115,3.115,6.991,4.856,10.51,4.856c0.538,0,1.067-0.044,1.584-0.127c-0.015,0.302-0.018,0.606-0.049,0.906  c-0.014,0.136-0.037,0.268-0.054,0.403c-0.058,0.456-0.129,0.908-0.223,1.353c-0.031,0.146-0.065,0.29-0.099,0.434  c-0.102,0.427-0.221,0.848-0.355,1.261c-0.047,0.143-0.09,0.287-0.141,0.428c-0.154,0.431-0.329,0.85-0.518,1.261  c-0.52,1.124-1.167,2.156-1.924,3.083H32v2h8.58c-1.547,1.249-3.359,2.153-5.364,2.621c-0.115,0.026-0.227,0.064-0.342,0.088  c-0.003,0.001-0.006,0.001-0.009,0.001c-1.878,0.378-3.853,0.378-5.73,0c-0.002,0-0.005-0.001-0.007-0.001  c-0.117-0.024-0.229-0.062-0.345-0.088C24.633,38.651,21.296,35.826,19.487,31.917z M25,42.651V45c0,0.197,0.059,0.391,0.168,0.555  l4.827,7.24c-0.108-0.02-0.218-0.032-0.325-0.056c-0.058-0.012-0.116-0.027-0.173-0.04c-5.389-1.268-9.396-6.227-9.485-7.678  c-0.001-0.014-0.006-0.027-0.007-0.04C20.038,44.52,21.337,43.4,25,42.651z M43.997,44.98c-0.001,0.014-0.007,0.026-0.007,0.04  c-0.09,1.451-4.097,6.41-9.485,7.678c-0.058,0.013-0.115,0.028-0.173,0.04c-0.107,0.023-0.217,0.035-0.325,0.056l4.827-7.24  C38.941,45.391,39,45.197,39,45v-2.349C42.663,43.4,43.962,44.52,43.997,44.98z"/><rect x="16" y="58" width="2" height="4"/><rect x="46" y="58" width="2" height="4"/><path d="M29,31c0-1.654-1.346-3-3-3s-3,1.346-3,3h2c0-0.551,0.449-1,1-1s1,0.449,1,1H29z"/><path d="M38,30c0.551,0,1,0.449,1,1h2c0-1.654-1.346-3-3-3s-3,1.346-3,3h2C37,30.449,37.449,30,38,30z"/><path d="M3,16h8.697l2.748,1.832C14.613,17.944,14.806,18,15,18c0.162,0,0.324-0.039,0.472-0.118C15.797,17.708,16,17.369,16,17V3  c0-0.552-0.448-1-1-1H3C2.448,2,2,2.448,2,3v12C2,15.552,2.448,16,3,16z M4,4h10v11.131l-1.445-0.963C12.391,14.059,12.197,14,12,14  H4V4z"/><path d="M61,2h-9c-0.552,0-1,0.448-1,1v13.697l-1.832,2.748c-0.205,0.307-0.224,0.701-0.05,1.026C49.292,20.797,49.631,21,50,21h11  c0.552,0,1-0.448,1-1V3C62,2.448,61.552,2,61,2z M60,19h-8.131l0.963-1.445C52.941,17.391,53,17.197,53,17V4h7V19z"/><rect x="6" y="6" width="6" height="2"/><rect x="6" y="10" width="6" height="2"/><rect x="55" y="6" width="3" height="2"/><rect x="55" y="10" width="3" height="2"/><rect x="55" y="14" width="3" height="2"/><text x="0" y="79" fill="#000000" font-size="5px" font-weight="bold" font-family="'Helvetica Neue', Helvetica, Arial-Unicode, Arial, Sans-serif">Created by Becris</text><text x="0" y="84" fill="#000000" font-size="5px" font-weight="bold" font-family="'Helvetica Neue', Helvetica, Arial-Unicode, Arial, Sans-serif">from the Noun Project</text></svg>