<svg xmlns="http://www.w3.org/2000/svg" width="142" height="142" viewBox="0 0 142 142" class="" style="">
  <g fill="none" stroke="#D0D344" fill-rule="evenodd">
    <path fill-rule="nonzero" d="M98.2995,82.8333333 L108.866667,82.8333333 C110.173067,82.8333333 111.233333,81.7730667 111.233333,80.4666667 L111.233333,74.7298667 C115.405767,72.8980667 118.333333,68.7398333 118.333333,63.9 C118.333333,58.1537333 114.2106,53.3612333 108.772,52.2962333 C107.849,31.8222 93.8596333,16.2779333 74.9002667,14.3964333 C73.6222667,14.2662667 72.3206,14.2 71,14.2 C69.6723,14.2 68.3635333,14.2662667 67.0784333,14.3964333 C48.1309,16.2874 34.151,31.8293 33.228,52.2962333 C27.7894,53.3612333 23.6666667,58.1537333 23.6666667,63.9 C23.6666667,70.4249 28.9751,75.7333333 35.5,75.7333333 C36.4656,75.7333333 37.4241,75.5960667 38.3660333,75.3546667 C42.1006333,82.1351667 47.6528333,87.5027667 54.4333333,90.8397667 L54.4333333,91.3888333 C48.0386,92.6005667 39.4192,95.1778667 38.0654667,100.3514 L13.2344,111.439233 C12.3824,111.820267 11.8333333,112.665167 11.8333333,113.6 L11.8333333,142 L16.5666667,142 L16.5666667,115.1336 L38.7778333,105.217267 C41.5397333,111.486567 50.5472667,120.761533 62.2244,124.1293 C62.48,124.205033 62.7403333,124.2713 62.9983,124.339933 C63.6349333,124.507967 64.2715667,124.666533 64.9224,124.7967 C65.4265,124.898467 65.9377,124.971833 66.4489,125.049933 C66.9222333,125.120933 67.3884667,125.206133 67.8665333,125.255833 C68.8984,125.3647 69.9421,125.433333 71,125.433333 C72.0579,125.433333 73.1016,125.3647 74.1334667,125.255833 C74.6115333,125.206133 75.0801333,125.120933 75.5511,125.049933 C76.0623,124.971833 76.5735,124.898467 77.0776,124.7967 C77.7284333,124.666533 78.3650667,124.507967 79.0017,124.339933 C79.2596667,124.2713 79.52,124.205033 79.7756,124.1293 C91.4527333,120.761533 100.460267,111.486567 103.222167,105.217267 L125.433333,115.1336 L125.433333,142 L130.166667,142 L130.166667,113.6 C130.166667,112.665167 129.6176,111.820267 128.7656,111.439233 L103.934533,100.3514 C102.5808,95.1778667 93.9614,92.6005667 87.5666667,91.3888333 L87.5666667,90.8397667 C91.6184,88.8446667 95.2465,86.1490333 98.2995,82.8333333 Z M59.1666667,93.3744667 L59.1666667,92.8206667 C59.2447667,92.8467 59.3276,92.8632667 59.4080667,92.8893 C59.5548,92.9366333 59.7086333,92.9697667 59.8577333,93.0147333 C60.7973,93.3011 61.7487,93.5496 62.7166667,93.7578667 C63.1024333,93.8430667 63.4953,93.9140667 63.8858,93.9850667 C64.6478667,94.1247 65.4146667,94.2430333 66.1862,94.3377 C66.6240333,94.3921333 67.0618667,94.4489333 67.5044333,94.4891667 C68.4913333,94.5767333 69.4829667,94.6264333 70.4769667,94.6382667 C70.6544667,94.643 70.8225,94.6666667 71,94.6666667 C71.1775,94.6666667 71.3455333,94.643 71.5206667,94.6406333 C72.5146667,94.6288 73.5063,94.5791 74.4932,94.4915333 C74.9381333,94.4513 75.3736,94.3945 75.8114333,94.3400667 C76.5853333,94.2454 77.3497667,94.1294333 78.1118333,93.9874333 C78.5023333,93.9140667 78.8952,93.8454333 79.2809667,93.7602333 C80.2489333,93.5496 81.2003333,93.3011 82.1399,93.0171 C82.289,92.9721333 82.4428333,92.939 82.5895667,92.8916667 C82.6700333,92.8656333 82.7528667,92.8490667 82.8309667,92.8230333 L82.8309667,93.3744667 L82.8309667,101.051933 L70.9976333,118.801933 L59.1643,101.051933 L59.1643,93.3744667 L59.1666667,93.3744667 Z M106.5,78.1 L101.982033,78.1 C102.568967,77.2148667 103.115667,76.2966 103.633967,75.3546667 C104.5759,75.5960667 105.5344,75.7333333 106.5,75.7333333 L106.5,78.1 Z M37.9873667,51.6856333 C38.056,50.6466667 38.1672333,49.6219 38.3116,48.6137 C38.3305333,48.4859 38.3447333,48.3557333 38.3636667,48.2279333 C38.5269667,47.1676667 38.7281333,46.1239667 38.9719,45.1039333 C38.9837333,45.0495 38.9955667,44.9950667 39.0097667,44.9406333 C41.9207667,32.9345333 50.2987667,23.7637 61.3463667,20.3675333 C61.4836333,20.3249333 61.6256333,20.2965333 61.7652667,20.2586667 C62.6314667,20.0054333 63.5095,19.7735 64.4088333,19.5936333 C64.8159,19.5131667 65.2348,19.4682 65.6489667,19.4019333 C66.3045333,19.2954333 66.9553667,19.1747333 67.6275,19.1084667 C68.7303667,18.9948667 69.8569,18.9333333 71,18.9333333 C72.1762333,18.9333333 73.3359,18.9925 74.4742667,19.1084667 C74.5121333,19.1132 74.55,19.1203 74.5878667,19.1250333 C87.0199667,20.4361667 97.0025667,28.5207 101.5158,40.1268333 C101.570233,40.2688333 101.627033,40.4108333 101.6791,40.5528333 C101.9631,41.3125333 102.209233,42.0982667 102.4459,42.8887333 C102.576067,43.3313 102.710967,43.7691333 102.824567,44.2188 C102.952367,44.7110667 103.058867,45.2175333 103.167733,45.7216333 C103.323933,46.4529333 103.477767,47.1842333 103.5961,47.9368333 C103.633967,48.1782333 103.66,48.4243667 103.693133,48.6657667 C103.828033,49.6455667 103.941633,50.6324667 104.0079,51.6430333 C104.0079,51.6596 104.0079,51.6738 104.010267,51.6903667 C96.2121,53.2642 86.2981333,49.5083 78.7413667,41.9539 C76.3699667,39.5825 74.3275333,36.9176333 72.6732333,34.0374 C71.8283333,32.5677 69.4143333,32.5677 68.5694333,34.0374 C66.9151333,36.9176333 64.8727,39.5825 62.5013,41.9539 C55.2522,49.2006333 45.6506333,53.0133333 37.9802667,51.8371 C37.985,51.7874 37.985,51.7353333 37.9873667,51.6856333 Z M113.6,63.9 C113.6,68.0677 109.9151,71.4212667 105.7403,70.9550333 C106.111867,70.0296667 106.433733,69.0759 106.7414,68.1126667 C106.8053,67.9115 106.878667,67.7150667 106.9402,67.5139 C107.1958,66.6666333 107.4159,65.8028 107.6218,64.9271333 C107.709367,64.5555667 107.801667,64.184 107.879767,63.8100667 C108.035967,63.0551 108.173233,62.2930333 108.291567,61.5191333 C108.3815,60.9511333 108.454867,60.3831333 108.5235,59.8104 C108.596867,59.1785 108.6655,58.5466 108.712833,57.9028667 C108.731767,57.6591 108.769633,57.4200667 108.7862,57.1763 C111.581233,58.1300667 113.6,60.7854667 113.6,63.9 Z M28.4,63.9 C28.4,60.7854667 30.4187667,58.1300667 33.2161667,57.1763 C33.2303667,57.4200667 33.2706,57.6614667 33.2895333,57.9028667 C33.3368667,58.5466 33.4055,59.1785 33.4788667,59.8104 C33.5475,60.3831333 33.6208667,60.9511333 33.7108,61.5191333 C33.8291333,62.2906667 33.9640333,63.0551 34.1226,63.8100667 C34.2007,64.1863667 34.293,64.5555667 34.3805667,64.9271333 C34.5864667,65.8004333 34.8065667,66.6666333 35.0621667,67.5139 C35.1237,67.7150667 35.1970667,67.9115 35.2609667,68.1126667 C35.5686333,69.0759 35.8905,70.0296667 36.2620667,70.9550333 C32.0967333,71.4212667 28.4,68.0677 28.4,63.9 Z M41.3859,70.8035667 C40.9386,69.8308667 40.5220667,68.8392333 40.1599667,67.8192 C40.0416333,67.4855 39.9375,67.1447 39.8262667,66.8062667 C39.5091333,65.8264667 39.2251333,64.8324667 38.9861,63.8219 C38.9056333,63.4811 38.8228,63.1403 38.7518,62.7947667 C38.5317,61.7416 38.3613,60.6718667 38.2240333,59.5926667 C38.1838,59.2731667 38.1293667,58.9607667 38.0962333,58.6389 C38.0276,57.9644 38.0205,57.2804333 37.985,56.6012 C47.0540667,57.7088 57.6567333,53.4961333 65.8501333,45.3027333 C67.6085667,43.5443 69.2060667,41.6415 70.6237,39.6203667 C72.0437,41.6415 73.6388333,43.5443 75.3996333,45.3027333 C82.7718,52.6749 91.945,56.7952667 100.2733,56.7952667 C101.546567,56.7952667 102.798533,56.6911333 104.0221,56.4947 C103.9866,57.2094333 103.9795,57.9289 103.906133,58.6389 C103.873,58.9607667 103.818567,59.2731667 103.778333,59.5926667 C103.641067,60.6718667 103.473033,61.7416 103.250567,62.7947667 C103.1772,63.1403 103.096733,63.4811 103.016267,63.8219 C102.774867,64.8324667 102.493233,65.8288333 102.1761,66.8062667 C102.064867,67.1447 101.9631,67.4855 101.8424,67.8192 C101.477933,68.8392333 101.063767,69.8308667 100.616467,70.8035667 C99.3858,73.4637 97.8545667,75.9061 96.063,78.1 L71,78.1 L71,82.8333333 L91.306,82.8333333 C87.6447667,85.7893 83.3563667,87.9287667 78.6112,89.0363667 C78.3390333,89.0979 78.0739667,89.1878333 77.8018,89.2446333 C77.7947,89.247 77.7876,89.247 77.7805,89.247 C73.3359,90.1416 68.6617333,90.1416 64.2195,89.247 C64.2147667,89.247 64.2076667,89.2446333 64.2029333,89.2446333 C63.9260333,89.1878333 63.6609667,89.0979 63.3864333,89.0363667 C53.5647667,86.7407 45.6672,80.0548667 41.3859,70.8035667 Z M54.4333333,96.2073667 L54.4333333,101.766667 C54.4333333,102.2329 54.5729667,102.692033 54.8309333,103.080167 L66.2548333,120.214833 C65.9992333,120.1675 65.7389,120.1391 65.4856667,120.0823 C65.3484,120.0539 65.2111333,120.0184 65.0762333,119.987633 C52.3222667,116.9867 42.8390333,105.2504 42.6284,101.816367 C42.6260333,101.783233 42.6142,101.752467 42.6118333,101.7217 C42.6899333,100.630667 45.7642333,97.98 54.4333333,96.2073667 Z M99.3929,101.719333 C99.3905333,101.752467 99.3763333,101.780867 99.3763333,101.814 C99.1633333,105.248033 89.6801,116.984333 76.9285,119.985267 C76.7912333,120.016033 76.6563333,120.051533 76.5190667,120.079933 C76.2658333,120.134367 76.0055,120.162767 75.7499,120.212467 L87.1738,103.0778 C87.4270333,102.692033 87.5666667,102.2329 87.5666667,101.766667 L87.5666667,96.2073667 C96.2357667,97.98 99.3100667,100.630667 99.3929,101.719333 Z" class="oTznfMYt_0"></path>
    <path width="4.733" height="9.467" fill-rule="nonzero" d="M33.133 132.533 L37.866 132.533 L37.866 142 L33.133 142 Z" class="oTznfMYt_1"></path>
    <path width="4.733" height="9.467" fill-rule="nonzero" d="M104.133 132.533 L108.866 132.533 L108.866 142 L104.133 142 Z" class="oTznfMYt_2"></path>
    <path fill-rule="nonzero" d="M63.9 68.6333333C63.9 64.7188667 60.7144667 61.5333333 56.8 61.5333333 52.8855333 61.5333333 49.7 64.7188667 49.7 68.6333333L54.4333333 68.6333333C54.4333333 67.3293 55.4959667 66.2666667 56.8 66.2666667 58.1040333 66.2666667 59.1666667 67.3293 59.1666667 68.6333333L63.9 68.6333333zM85.2 66.2666667C86.5040333 66.2666667 87.5666667 67.3293 87.5666667 68.6333333L92.3 68.6333333C92.3 64.7188667 89.1144667 61.5333333 85.2 61.5333333 81.2855333 61.5333333 78.1 64.7188667 78.1 68.6333333L82.8333333 68.6333333C82.8333333 67.3293 83.8959667 66.2666667 85.2 66.2666667zM2.36666667 33.1333333L22.9495667 33.1333333 29.4531667 37.4690667C29.8507667 37.7341333 30.3075333 37.8666667 30.7666667 37.8666667 31.1500667 37.8666667 31.5334667 37.7743667 31.8837333 37.5874 32.6529 37.1756 33.1333333 36.3733 33.1333333 35.5L33.1333333 2.36666667C33.1333333 1.06026667 32.0730667 0 30.7666667 0L2.36666667 0C1.06026667 0 0 1.06026667 0 2.36666667L0 30.7666667C0 32.0730667 1.06026667 33.1333333 2.36666667 33.1333333zM4.73333333 4.73333333L28.4 4.73333333 28.4 31.0767 24.9801667 28.7976C24.5920333 28.5396333 24.1329 28.4 23.6666667 28.4L4.73333333 28.4 4.73333333 4.73333333zM139.633333 0L118.333333 0C117.026933 0 115.966667 1.06026667 115.966667 2.36666667L115.966667 34.7829 111.630933 41.2865C111.145767 42.0130667 111.1008 42.9455333 111.5126 43.7147 111.9244 44.4862333 112.7267 44.9666667 113.6 44.9666667L139.633333 44.9666667C140.939733 44.9666667 142 43.9064 142 42.6L142 2.36666667C142 1.06026667 140.939733 0 139.633333 0zM137.266667 40.2333333L118.0233 40.2333333 120.3024 36.8135C120.560367 36.4253667 120.7 35.9662333 120.7 35.5L120.7 4.73333333 137.266667 4.73333333 137.266667 40.2333333z" class="oTznfMYt_3"></path>
    <path width="14.2" height="4.733" fill-rule="nonzero" d="M9.467 9.467 L23.667 9.467 L23.667 14.2 L9.467 14.2 Z" class="oTznfMYt_4"></path>
    <path width="14.2" height="4.733" fill-rule="nonzero" d="M9.467 18.933 L23.667 18.933 L23.667 23.666 L9.467 23.666 Z" class="oTznfMYt_5"></path>
    <path width="7.1" height="4.733" fill-rule="nonzero" d="M125.433 9.467 L132.53300000000002 9.467 L132.53300000000002 14.2 L125.433 14.2 Z" class="oTznfMYt_6"></path>
    <path width="7.1" height="4.733" fill-rule="nonzero" d="M125.433 18.933 L132.53300000000002 18.933 L132.53300000000002 23.666 L125.433 23.666 Z" class="oTznfMYt_7"></path>
    <path width="7.1" height="4.733" fill-rule="nonzero" d="M125.433 28.4 L132.53300000000002 28.4 L132.53300000000002 33.132999999999996 L125.433 33.132999999999996 Z" class="oTznfMYt_8"></path>
  </g>
<style>.oTznfMYt_0{stroke-dasharray:1311 1313;stroke-dashoffset:1312;}.start .oTznfMYt_0{animation:oTznfMYt_draw 4000ms linear 0ms forwards;}.oTznfMYt_1{stroke-dasharray:29 31;stroke-dashoffset:30;}.start .oTznfMYt_1{animation:oTznfMYt_draw 4000ms linear 0ms forwards;}.oTznfMYt_2{stroke-dasharray:29 31;stroke-dashoffset:30;}.start .oTznfMYt_2{animation:oTznfMYt_draw 4000ms linear 0ms forwards;}.oTznfMYt_3{stroke-dasharray:563 565;stroke-dashoffset:564;}.start .oTznfMYt_3{animation:oTznfMYt_draw 4000ms linear 0ms forwards;}.oTznfMYt_4{stroke-dasharray:38 40;stroke-dashoffset:39;}.start .oTznfMYt_4{animation:oTznfMYt_draw 4000ms linear 0ms forwards;}.oTznfMYt_5{stroke-dasharray:38 40;stroke-dashoffset:39;}.start .oTznfMYt_5{animation:oTznfMYt_draw 4000ms linear 0ms forwards;}.oTznfMYt_6{stroke-dasharray:24 26;stroke-dashoffset:25;}.start .oTznfMYt_6{animation:oTznfMYt_draw 4000ms linear 0ms forwards;}.oTznfMYt_7{stroke-dasharray:24 26;stroke-dashoffset:25;}.start .oTznfMYt_7{animation:oTznfMYt_draw 4000ms linear 0ms forwards;}.oTznfMYt_8{stroke-dasharray:24 26;stroke-dashoffset:25;}.start .oTznfMYt_8{animation:oTznfMYt_draw 4000ms linear 0ms forwards;}@keyframes oTznfMYt_draw{100%{stroke-dashoffset:0;}}@keyframes oTznfMYt_fade{0%{stroke-opacity:1;}95.1219512195122%{stroke-opacity:1;}100%{stroke-opacity:0;}}</style></svg>
