<svg xmlns="http://www.w3.org/2000/svg" width="157" height="316" viewBox="0 0 157 316">
  <g fill="#FFF" fill-rule="evenodd" font-family="Arkhip" font-size="26" transform="translate(-3 -9)">
    <text transform="rotate(2.88 11.125 16.876)">
      <tspan x="1.625" y="23.376">н</tspan>
    </text>
    <text transform="rotate(13.74 38.308 20.981)">
      <tspan x="28.308" y="27.481">о</tspan>
    </text>
    <text transform="rotate(24.1 63.996 29.846)">
      <tspan x="54.496" y="36.346">в</tspan>
    </text>
    <text transform="rotate(34.39 87.383 43.014)">
      <tspan x="77.383" y="49.514">и</tspan>
    </text>
    <text transform="rotate(45 108.585 60.635)">
      <tspan x="98.544" y="67.072">й</tspan>
    </text>
    <text transform="rotate(60.85 133.834 94.04)">
      <tspan x="124.334" y="100.541">п</tspan>
    </text>
    <text transform="rotate(71.29 144.954 119.176)">
      <tspan x="134.954" y="125.676">о</tspan>
    </text>
    <text transform="rotate(80.95 150.959 143.584)">
      <tspan x="143.459" y="150.084">г</tspan>
    </text>
    <text transform="rotate(90.25 152.798 168.248)">
      <tspan x="143.298" y="174.748">л</tspan>
    </text>
    <text transform="rotate(100.408 150.29 194.25)">
      <tspan x="140.824" y="200.806">я</tspan>
    </text>
    <text transform="rotate(110.422 143.21 220.265)">
      <tspan x="133.18" y="226.718">д</tspan>
    </text>
    <text transform="rotate(126.52 123.28 256.843)">
      <tspan x="113.78" y="263.343">н</tspan>
    </text>
    <text transform="rotate(136.5 105.706 276.66)">
      <tspan x="96.706" y="283.16">а</tspan>
    </text>
    <text transform="rotate(151.93 72.757 300.35)">
      <tspan x="63.757" y="306.85">р</tspan>
    </text>
    <text transform="rotate(161.48 49.575 310.273)">
      <tspan x="41.075" y="316.773">е</tspan>
    </text>
    <text transform="rotate(170.9 26.005 316.023)">
      <tspan x="17.505" y="322.523">ч</tspan>
    </text>
    <text transform="rotate(178.854 5.26 317.87)">
      <tspan x=".759" y="324.367">і</tspan>
    </text>
  </g>
</svg>
