<svg xmlns="http://www.w3.org/2000/svg" width="50" height="50" viewBox="0 0 50 50">
  <g fill="none" fill-rule="evenodd">
    <path fill="#2E3848" fill-rule="nonzero" d="M24.826,0 C11.137,0 0,11.137 0,24.826 C0,38.514 11.137,49.652 24.826,49.652 C38.514,49.652 49.652,38.514 49.652,24.826 C49.652,11.137 38.516,0 24.826,0 Z"/>
    <path fill="#FFF" fill-rule="nonzero" d="M36.0746934,13.0975933 L8.6372737,23.6737412 C7.74857115,24.0163379 7.80241008,25.2778098 8.71722182,25.5449764 L15.6893639,27.5814987 L18.291369,35.7484268 C18.5631746,36.6014899 19.656069,36.8601072 20.2887215,36.2211337 L23.8934993,32.5803647 L30.9663868,37.715753 C31.8319512,38.344218 33.0646648,37.8772997 33.2844321,36.8377543 L37.9688696,14.684296 C38.1982703,13.5991542 37.1189707,12.6950622 36.0746934,13.0975933 Z M32.6347636,18.0139939 L19.8902414,29.1617894 C19.7632067,29.2729307 19.6823582,29.4267297 19.6634516,29.5934416 L19.172779,33.9080049 C19.1567534,34.0487126 18.9576934,34.0673252 18.9151984,33.9321389 L16.8964184,27.4976084 C16.8039559,27.2030126 16.9245083,26.8838375 17.1894715,26.7213111 L32.2394346,17.4883881 C32.5855163,17.2759015 32.9398809,17.7471835 32.6347636,18.0139939 Z"/>
  </g>
</svg>
