<svg xmlns="http://www.w3.org/2000/svg" width="68" height="57" viewBox="0 0 68 57">
  <g fill="#FFF" fill-rule="evenodd">
    <path d="M28.5171,5.0016 C15.5481,5.0016 4.9971,15.5526 4.9971,28.5216 C4.9971,41.4906 15.5481,52.0416 28.5171,52.0416 C41.4861,52.0416 52.0371,41.4906 52.0371,28.5216 C52.0371,15.5526 41.4861,5.0016 28.5171,5.0016 M28.5171,56.4796 C13.1011,56.4796 0.5591,43.9376 0.5591,28.5216 C0.5591,13.1056 13.1011,0.5636 28.5171,0.5636 C43.9331,0.5636 56.4751,13.1056 56.4751,28.5216 C56.4751,43.9376 43.9331,56.4796 28.5171,56.4796"/>
    <polygon points="36.094 18.675 41.164 18.675 37.024 29.853 32.142 29.853"/>
    <path d="M21.8283 18.5699C21.8283 18.5699 23.5493 20.5379 24.6113 23.5209 25.6733 26.5029 26.2203 30.2299 27.4523 33.5959 27.8633 34.7169 28.5213 35.9559 29.2153 37.1109L31.6993 41.3909 26.3743 41.3909C26.3743 41.3909 24.4083 38.5289 23.1753 35.1619 21.9433 31.7959 21.3963 28.0699 20.3343 25.0869 19.2723 22.1039 16.6103 18.5369 16.6103 18.5369L21.8283 18.5699zM61.4164 37.5442C60.9864 39.8112 62.9374 41.7612 65.2034 41.3312 66.4634 41.0932 67.4934 40.0632 67.7314 38.8042 68.1614 36.5372 66.2104 34.5872 63.9444 35.0162 62.6854 35.2552 61.6554 36.2852 61.4164 37.5442"/>
  </g>
</svg>
