<svg xmlns="http://www.w3.org/2000/svg" xmlns:xlink="http://www.w3.org/1999/xlink" width="1709" height="965" viewBox="0 0 1709 965">
  <defs>
    <polygon id="vesch_flag-a" points="0 128.76 0 0 1709 0 1709 128.76 0 128.76"/>
    <polygon id="vesch_flag-c" points="0 195.554 0 .446 1709 .446 1709 195.554"/>
    <polygon id="vesch_flag-e" points="0 195.235 0 .127 1709 .127 1709 195.235"/>
    <polygon id="vesch_flag-g" points="0 195.54 0 .432 1709 .432 1709 195.54"/>
    <polygon id="vesch_flag-i" points="0 195.221 0 .113 1709 .113 1709 195.221"/>
    <polygon id="vesch_flag-k" points="0 196.015 0 .907 1709 .907 1709 196.015"/>
    <polygon id="vesch_flag-m" points="0 195.696 0 .588 1709 .588 1709 195.696"/>
  </defs>
  <g fill="none" fill-rule="evenodd">
    <mask id="vesch_flag-b" fill="#fff">
      <use xlink:href="#vesch_flag-a"/>
    </mask>
    <path fill="#D5DA37" d="M1523.2576,-64.5905 C1489.3236,-65.0295 1463.1696,-50.5255 1463.1696,-50.5255 L1463.1716,-50.2615 C1457.4356,-48.1215 1424.7696,-36.5355 1389.8926,-36.5355 C1351.4676,-36.5355 1312.4836,-48.4025 1278.5496,-48.8425 C1244.6166,-49.2815 1218.9996,-34.7775 1218.9996,-34.7775 L1218.9996,-34.5095 C1210.9996,-32.0495 1179.6426,-20.9305 1145.4656,-20.9305 C1107.0406,-20.9305 1067.2706,-32.7975 1033.3366,-33.2375 C999.4026,-33.6765 972.9996,-19.1725 972.9996,-19.1725 L972.9996,-19.1265 C968.9996,-17.8615 935.6056,-5.1715 899.0946,-5.1715 C860.6696,-5.1715 821.1376,-17.0395 787.2036,-17.4795 C754.3776,-17.9045 728.8286,-4.3455 727.1966,-3.4605 C723.0996,-1.9045 689.4466,10.4435 653.4426,10.4435 C615.0176,10.4435 575.7586,-1.4245 541.8256,-1.8635 C507.8916,-2.3035 481.9996,12.2015 481.9996,12.2015 L481.9996,12.2075 C477.9996,13.6015 444.1966,26.1405 407.9076,26.1405 C369.4826,26.1405 330.4916,14.2725 296.5576,13.8335 C262.6236,13.3935 236.9996,27.8985 236.9996,27.8985 L236.9996,27.9205 C230.9996,29.9135 198.1106,41.6945 162.9326,41.6945 C124.5076,41.6945 84.6536,29.8265 50.7206,29.3875 C16.8216,28.9485 -9.4764,42.9975 -9.5304,43.0265 C-15.7754,45.3425 -48.1814,56.6765 -82.6834,56.6765 C-121.1084,56.6765 -160.8044,44.8085 -194.7374,44.3685 C-228.6714,43.9295 -255.0004,58.4345 -255.0004,58.4345 L-255.0004,128.7595 C-255.0004,128.7595 -228.7134,114.2555 -194.7794,114.6945 C-160.8454,115.1345 -121.4604,127.0015 -83.0344,127.0015 C-44.6104,127.0015 -9.0004,112.9365 -9.0004,112.9365 L-9.0004,112.8215 C-5.0004,110.4665 19.8286,99.3195 50.1866,99.7125 C84.1206,100.1525 124.0226,112.0205 162.4476,112.0205 C200.8736,112.0205 236.9996,97.9545 236.9996,97.9545 L236.9996,97.8195 C239.9996,95.4855 265.4776,83.7635 296.0426,84.1595 C329.9766,84.5985 369.4506,96.4665 407.8756,96.4665 C446.3006,96.4665 481.9996,82.4005 481.9996,82.4005 L481.9996,82.3425 C484.9996,80.6765 509.9556,68.0515 541.6526,68.4625 C575.5866,68.9015 615.0086,80.7685 653.4336,80.7685 C689.2326,80.7685 723.5546,68.5655 726.9996,66.8975 L726.9996,66.9115 C726.9996,66.9115 727.2786,66.8945 727.3336,66.8645 C727.6086,66.7605 727.9996,66.7035 727.9996,66.7035 L727.9996,66.6425 C730.9996,64.6905 756.1536,52.4425 787.3886,52.8465 C821.3226,53.2865 860.6236,65.1535 899.0486,65.1535 C937.4736,65.1535 972.9996,51.0885 972.9996,51.0885 L972.9996,50.9995 C975.9996,49.4555 1001.0376,36.6755 1032.9246,37.0885 C1066.8586,37.5275 1106.8916,49.3955 1145.3166,49.3955 C1183.7426,49.3955 1219.9996,35.3305 1219.9996,35.3305 L1219.9996,34.9335 C1223.9996,32.1775 1248.7406,21.0985 1278.4626,21.4835 C1312.3966,21.9235 1351.6606,33.7905 1390.0856,33.7905 C1428.5106,33.7905 1463.9996,19.7255 1463.9996,19.7255 L1463.9996,19.3215 C1466.9996,17.5275 1491.7836,5.3275 1523.2256,5.7355 C1557.1596,6.1745 1596.5416,18.0425 1634.9676,18.0425 C1673.3926,18.0425 1708.9996,3.9775 1708.9996,3.9775 L1708.9996,-66.3485 C1708.9996,-66.3485 1673.4086,-52.2835 1634.9836,-52.2835 C1596.5576,-52.2835 1557.1916,-64.1505 1523.2576,-64.5905" mask="url(#vesch_flag-b)"/>
    <g transform="translate(0 76)">
      <mask id="vesch_flag-d" fill="#fff">
        <use xlink:href="#vesch_flag-c"/>
      </mask>
      <path fill="#D5DA37" d="M1523.2576,2.204 C1489.3236,1.765 1463.1696,16.269 1463.1696,16.269 L1463.1716,16.533 C1457.4356,18.673 1424.7696,30.259 1389.8926,30.259 C1351.4676,30.259 1312.4836,18.392 1278.5496,17.952 C1244.6166,17.513 1218.9996,32.017 1218.9996,32.017 L1218.9996,32.285 C1210.9996,34.745 1179.6426,45.864 1145.4656,45.864 C1107.0406,45.864 1067.2706,33.997 1033.3366,33.557 C999.4026,33.118 972.9996,47.622 972.9996,47.622 L972.9996,47.668 C968.9996,48.933 935.6056,61.623 899.0946,61.623 C860.6696,61.623 821.1376,49.755 787.2036,49.316 C754.3756,48.89 728.8266,62.45 727.1966,63.334 C723.0976,64.891 689.4456,77.238 653.4426,77.238 C615.0176,77.238 575.7586,65.371 541.8256,64.931 C507.8916,64.491 481.9996,78.996 481.9996,78.996 L481.9996,79.002 C477.9996,80.396 444.1966,92.935 407.9076,92.935 C369.4826,92.935 330.4916,81.068 296.5576,80.628 C262.6236,80.189 236.9996,94.693 236.9996,94.693 L236.9996,94.715 C230.9996,96.708 198.1106,108.489 162.9326,108.489 C124.5076,108.489 84.6536,96.621 50.7206,96.182 C16.8216,95.743 -9.4764,109.792 -9.5304,109.822 C-15.7754,112.137 -48.1814,123.471 -82.6834,123.471 C-121.1084,123.471 -160.8044,111.603 -194.7374,111.163 C-228.6714,110.724 -255.0004,125.229 -255.0004,125.229 L-255.0004,195.554 C-255.0004,195.554 -228.7134,181.05 -194.7794,181.489 C-160.8454,181.929 -121.4604,193.796 -83.0344,193.796 C-44.6104,193.796 -9.0004,179.731 -9.0004,179.731 L-9.0004,179.616 C-5.0004,177.261 19.8286,166.114 50.1866,166.508 C84.1206,166.947 124.0226,178.814 162.4476,178.814 C200.8736,178.814 236.9996,164.749 236.9996,164.749 L236.9996,164.613 C239.9996,162.28 265.4776,150.558 296.0426,150.954 C329.9766,151.393 369.4506,163.26 407.8756,163.26 C446.3006,163.26 481.9996,149.195 481.9996,149.195 L481.9996,149.138 C484.9996,147.47 509.9556,134.846 541.6526,135.256 C575.5866,135.696 615.0086,147.563 653.4336,147.563 C689.2326,147.563 723.5546,135.36 726.9996,133.692 L726.9996,133.706 C726.9996,133.706 727.2786,133.689 727.3336,133.659 C727.6086,133.555 727.9996,133.498 727.9996,133.498 L727.9996,133.437 C730.9996,131.485 756.1536,119.237 787.3886,119.641 C821.3226,120.081 860.6236,131.948 899.0486,131.948 C937.4736,131.948 972.9996,117.883 972.9996,117.883 L972.9996,117.794 C975.9996,116.251 1001.0376,103.47 1032.9246,103.883 C1066.8586,104.322 1106.8916,116.19 1145.3166,116.19 C1183.7426,116.19 1219.9996,102.125 1219.9996,102.125 L1219.9996,101.728 C1223.9996,98.972 1248.7406,87.893 1278.4626,88.278 C1312.3966,88.717 1351.6606,100.585 1390.0856,100.585 C1428.5106,100.585 1463.9996,86.52 1463.9996,86.52 L1463.9996,86.117 C1466.9996,84.322 1491.7836,72.123 1523.2256,72.53 C1557.1596,72.969 1596.5416,84.837 1634.9676,84.837 C1673.3926,84.837 1708.9996,70.772 1708.9996,70.772 L1708.9996,0.446 C1708.9996,0.446 1673.4086,14.511 1634.9836,14.511 C1596.5576,14.511 1557.1916,2.644 1523.2576,2.204" mask="url(#vesch_flag-d)"/>
    </g>
    <g transform="translate(0 219)">
      <mask id="vesch_flag-f" fill="#fff">
        <use xlink:href="#vesch_flag-e"/>
      </mask>
      <path fill="#D5DA37" d="M1523.2576,1.8852 C1489.3236,1.4452 1463.1696,15.9502 1463.1696,15.9502 L1463.1716,16.2142 C1457.4356,18.3542 1424.7696,29.9402 1389.8926,29.9402 C1351.4676,29.9402 1312.4836,18.0732 1278.5496,17.6332 C1244.6166,17.1942 1218.9996,31.6982 1218.9996,31.6982 L1218.9996,31.9662 C1210.9996,34.4262 1179.6426,45.5452 1145.4656,45.5452 C1107.0406,45.5452 1067.2706,33.6782 1033.3366,33.2382 C999.4026,32.7992 972.9996,47.3032 972.9996,47.3032 L972.9996,47.3492 C968.9996,48.6142 935.6056,61.3032 899.0946,61.3032 C860.6696,61.3032 821.1376,49.4362 787.2036,48.9962 C754.3776,48.5712 728.8286,62.1292 727.1966,63.0152 C723.0996,64.5712 689.4466,76.9192 653.4426,76.9192 C615.0176,76.9192 575.7586,65.0512 541.8256,64.6122 C507.8916,64.1722 481.9996,78.6772 481.9996,78.6772 L481.9996,78.6822 C477.9996,80.0772 444.1966,92.6162 407.9076,92.6162 C369.4826,92.6162 330.4916,80.7482 296.5576,80.3092 C262.6236,79.8692 236.9996,94.3742 236.9996,94.3742 L236.9996,94.3962 C230.9996,96.3892 198.1106,108.1692 162.9326,108.1692 C124.5076,108.1692 84.6536,96.3022 50.7206,95.8632 C16.8216,95.4242 -9.4764,109.4732 -9.5304,109.5022 C-15.7754,111.8182 -48.1814,123.1512 -82.6834,123.1512 C-121.1084,123.1512 -160.8044,111.2842 -194.7374,110.8442 C-228.6714,110.4052 -255.0004,124.9092 -255.0004,124.9092 L-255.0004,195.2352 C-255.0004,195.2352 -228.7134,180.7302 -194.7794,181.1702 C-160.8454,181.6092 -121.4604,193.4772 -83.0344,193.4772 C-44.6104,193.4772 -9.0004,179.4122 -9.0004,179.4122 L-9.0004,179.2972 C-5.0004,176.9422 19.8286,165.7952 50.1866,166.1882 C84.1206,166.6282 124.0226,178.4952 162.4476,178.4952 C200.8736,178.4952 236.9996,164.4302 236.9996,164.4302 L236.9996,164.2942 C239.9996,161.9612 265.4776,150.2382 296.0426,150.6342 C329.9766,151.0742 369.4506,162.9412 407.8756,162.9412 C446.3006,162.9412 481.9996,148.8762 481.9996,148.8762 L481.9996,148.8182 C484.9996,147.1512 509.9556,134.5272 541.6526,134.9372 C575.5866,135.3772 615.0086,147.2442 653.4336,147.2442 C689.2326,147.2442 723.5546,135.0412 726.9996,133.3722 L726.9996,133.3872 C726.9996,133.3872 727.2786,133.3702 727.3326,133.3402 C727.6086,133.2362 727.9996,133.1792 727.9996,133.1792 L727.9996,133.1182 C730.9996,131.1662 756.1536,118.9172 787.3886,119.3222 C821.3226,119.7622 860.6236,131.6292 899.0486,131.6292 C937.4736,131.6292 972.9996,117.5642 972.9996,117.5642 L972.9996,117.4752 C975.9996,115.9312 1001.0376,103.1512 1032.9246,103.5642 C1066.8586,104.0032 1106.8916,115.8712 1145.3166,115.8712 C1183.7426,115.8712 1219.9996,101.8062 1219.9996,101.8062 L1219.9996,101.4092 C1223.9996,98.6532 1248.7406,87.5742 1278.4626,87.9592 C1312.3966,88.3982 1351.6606,100.2662 1390.0856,100.2662 C1428.5106,100.2662 1463.9996,86.2002 1463.9996,86.2002 L1463.9996,85.7972 C1466.9996,84.0022 1491.7836,71.8032 1523.2256,72.2102 C1557.1596,72.6502 1596.5416,84.5182 1634.9676,84.5182 C1673.3926,84.5182 1708.9996,70.4522 1708.9996,70.4522 L1708.9996,0.1272 C1708.9996,0.1272 1673.4086,14.1922 1634.9836,14.1922 C1596.5576,14.1922 1557.1916,2.3242 1523.2576,1.8852" mask="url(#vesch_flag-f)"/>
    </g>
    <g transform="translate(0 358)">
      <mask id="vesch_flag-h" fill="#fff">
        <use xlink:href="#vesch_flag-g"/>
      </mask>
      <path fill="#D5DA37" d="M1523.2576,2.1901 C1489.3236,1.7501 1463.1696,16.2551 1463.1696,16.2551 L1463.1716,16.5191 C1457.4356,18.6591 1424.7696,30.2451 1389.8926,30.2451 C1351.4676,30.2451 1312.4836,18.3781 1278.5496,17.9381 C1244.6166,17.4991 1218.9996,32.0031 1218.9996,32.0031 L1218.9996,32.2711 C1210.9996,34.7311 1179.6426,45.8501 1145.4656,45.8501 C1107.0406,45.8501 1067.2706,33.9831 1033.3366,33.5431 C999.4026,33.1041 972.9996,47.6081 972.9996,47.6081 L972.9996,47.6541 C968.9996,48.9191 935.6056,61.6091 899.0946,61.6091 C860.6696,61.6091 821.1376,49.7411 787.2036,49.3011 C754.3756,48.8761 728.8266,62.4361 727.1966,63.3201 C723.0976,64.8771 689.4456,77.2241 653.4426,77.2241 C615.0176,77.2241 575.7586,65.3561 541.8256,64.9171 C507.8916,64.4771 481.9996,78.9821 481.9996,78.9821 L481.9996,78.9871 C477.9996,80.3821 444.1966,92.9211 407.9076,92.9211 C369.4826,92.9211 330.4916,81.0531 296.5576,80.6141 C262.6236,80.1741 236.9996,94.6791 236.9996,94.6791 L236.9996,94.7011 C230.9996,96.6941 198.1106,108.4751 162.9326,108.4751 C124.5076,108.4751 84.6536,96.6071 50.7206,96.1681 C16.8166,95.7291 -9.4844,109.7831 -9.5314,109.8081 C-15.7764,112.1241 -48.1824,123.4561 -82.6834,123.4561 C-121.1084,123.4561 -160.8044,111.5891 -194.7374,111.1491 C-228.6714,110.7101 -255.0004,125.2151 -255.0004,125.2151 L-255.0004,195.5401 C-255.0004,195.5401 -228.7134,181.0361 -194.7794,181.4751 C-160.8454,181.9151 -121.4604,193.7821 -83.0344,193.7821 C-44.6104,193.7821 -9.0004,179.7171 -9.0004,179.7171 L-9.0004,179.6021 C-5.0004,177.2471 19.8286,166.1001 50.1866,166.4931 C84.1206,166.9331 124.0226,178.8001 162.4476,178.8001 C200.8736,178.8001 236.9996,164.7351 236.9996,164.7351 L236.9996,164.5991 C239.9996,162.2661 265.4776,150.5441 296.0426,150.9391 C329.9766,151.3791 369.4506,163.2461 407.8756,163.2461 C446.3006,163.2461 481.9996,149.1811 481.9996,149.1811 L481.9996,149.1231 C484.9996,147.4561 509.9556,134.8321 541.6526,135.2421 C575.5866,135.6821 615.0086,147.5491 653.4336,147.5491 C689.2326,147.5491 723.5546,135.3461 726.9996,133.6781 L726.9996,133.6921 C726.9996,133.6921 727.2786,133.6751 727.3326,133.6451 C727.6086,133.5411 727.9996,133.4841 727.9996,133.4841 L727.9996,133.4231 C730.9996,131.4711 756.1536,119.2231 787.3886,119.6271 C821.3226,120.0671 860.6236,131.9341 899.0486,131.9341 C937.4736,131.9341 972.9996,117.8691 972.9996,117.8691 L972.9996,117.7801 C975.9996,116.2361 1001.0376,103.4561 1032.9246,103.8691 C1066.8586,104.3081 1106.8916,116.1761 1145.3166,116.1761 C1183.7426,116.1761 1219.9996,102.1111 1219.9996,102.1111 L1219.9996,101.7141 C1223.9996,98.9581 1248.7406,87.8791 1278.4626,88.2641 C1312.3966,88.7031 1351.6606,100.5711 1390.0856,100.5711 C1428.5106,100.5711 1463.9996,86.5061 1463.9996,86.5061 L1463.9996,86.1021 C1466.9996,84.3081 1491.7836,72.1081 1523.2256,72.5161 C1557.1596,72.9551 1596.5416,84.8231 1634.9676,84.8231 C1673.3926,84.8231 1708.9996,70.7571 1708.9996,70.7571 L1708.9996,0.4321 C1708.9996,0.4321 1673.4086,14.4971 1634.9836,14.4971 C1596.5576,14.4971 1557.1916,2.6301 1523.2576,2.1901" mask="url(#vesch_flag-h)"/>
    </g>
    <g transform="translate(0 501)">
      <mask id="vesch_flag-j" fill="#fff">
        <use xlink:href="#vesch_flag-i"/>
      </mask>
      <path fill="#D5DA37" d="M1523.2576,1.871 C1489.3236,1.431 1463.1696,15.936 1463.1696,15.936 L1463.1716,16.2 C1457.4356,18.34 1424.7696,29.926 1389.8926,29.926 C1351.4676,29.926 1312.4836,18.059 1278.5496,17.619 C1244.6166,17.18 1218.9996,31.684 1218.9996,31.684 L1218.9996,31.952 C1210.9996,34.412 1179.6426,45.531 1145.4656,45.531 C1107.0406,45.531 1067.2706,33.664 1033.3366,33.224 C999.4026,32.785 972.9996,47.289 972.9996,47.289 L972.9996,47.335 C968.9996,48.6 935.6056,61.289 899.0946,61.289 C860.6696,61.289 821.1376,49.422 787.2036,48.982 C754.3776,48.557 728.8286,62.115 727.1966,63.001 C723.0996,64.557 689.4466,76.905 653.4426,76.905 C615.0176,76.905 575.7586,65.037 541.8256,64.598 C507.8916,64.158 481.9996,78.663 481.9996,78.663 L481.9996,78.669 C477.9996,80.063 444.1966,92.602 407.9076,92.602 C369.4826,92.602 330.4916,80.734 296.5576,80.295 C262.6236,79.855 236.9996,94.36 236.9996,94.36 L236.9996,94.382 C230.9996,96.375 198.1106,108.156 162.9326,108.156 C124.5076,108.156 84.6536,96.288 50.7206,95.849 C16.8216,95.41 -9.4764,109.459 -9.5304,109.488 C-15.7754,111.804 -48.1814,123.137 -82.6834,123.137 C-121.1084,123.137 -160.8044,111.27 -194.7374,110.83 C-228.6714,110.391 -255.0004,124.896 -255.0004,124.896 L-255.0004,195.221 C-255.0004,195.221 -228.7134,180.716 -194.7794,181.156 C-160.8454,181.596 -121.4604,193.463 -83.0344,193.463 C-44.6104,193.463 -9.0004,179.398 -9.0004,179.398 L-9.0004,179.283 C-5.0004,176.928 19.8286,165.781 50.1866,166.174 C84.1206,166.614 124.0226,178.481 162.4476,178.481 C200.8736,178.481 236.9996,164.416 236.9996,164.416 L236.9996,164.28 C239.9996,161.947 265.4776,150.225 296.0426,150.62 C329.9766,151.06 369.4506,162.927 407.8756,162.927 C446.3006,162.927 481.9996,148.862 481.9996,148.862 L481.9996,148.804 C484.9996,147.138 509.9556,134.513 541.6526,134.923 C575.5866,135.363 615.0086,147.23 653.4336,147.23 C689.2326,147.23 723.5546,135.027 726.9996,133.359 L726.9996,133.373 C726.9996,133.373 727.2786,133.356 727.3336,133.326 C727.6086,133.222 727.9996,133.165 727.9996,133.165 L727.9996,133.104 C730.9996,131.152 756.1536,118.904 787.3886,119.308 C821.3226,119.748 860.6236,131.615 899.0486,131.615 C937.4736,131.615 972.9996,117.55 972.9996,117.55 L972.9996,117.461 C975.9996,115.917 1001.0376,103.137 1032.9246,103.55 C1066.8586,103.989 1106.8916,115.857 1145.3166,115.857 C1183.7426,115.857 1219.9996,101.792 1219.9996,101.792 L1219.9996,101.395 C1223.9996,98.639 1248.7406,87.56 1278.4626,87.945 C1312.3966,88.384 1351.6606,100.252 1390.0856,100.252 C1428.5106,100.252 1463.9996,86.187 1463.9996,86.187 L1463.9996,85.783 C1466.9996,83.989 1491.7836,71.789 1523.2256,72.197 C1557.1596,72.636 1596.5416,84.504 1634.9676,84.504 C1673.3926,84.504 1708.9996,70.438 1708.9996,70.438 L1708.9996,0.113 C1708.9996,0.113 1673.4086,14.178 1634.9836,14.178 C1596.5576,14.178 1557.1916,2.311 1523.2576,1.871" mask="url(#vesch_flag-j)"/>
    </g>
    <g transform="translate(0 643)">
      <mask id="vesch_flag-l" fill="#fff">
        <use xlink:href="#vesch_flag-k"/>
      </mask>
      <path fill="#D5DA37" d="M1523.2576,2.6654 C1489.3236,2.2254 1463.1696,16.7304 1463.1696,16.7304 L1463.1716,16.9944 C1457.4356,19.1344 1424.7696,30.7204 1389.8926,30.7204 C1351.4676,30.7204 1312.4836,18.8534 1278.5496,18.4134 C1244.6166,17.9744 1218.9996,32.4794 1218.9996,32.4794 L1218.9996,32.7464 C1210.9996,35.2064 1179.6426,46.3254 1145.4656,46.3254 C1107.0406,46.3254 1067.2706,34.4584 1033.3366,34.0184 C999.4026,33.5794 972.9996,48.0834 972.9996,48.0834 L972.9996,48.1294 C968.9996,49.3944 935.6056,62.0844 899.0946,62.0844 C860.6696,62.0844 821.1376,50.2164 787.2036,49.7774 C754.3776,49.3514 728.8286,62.9094 727.1966,63.7954 C723.0996,65.3514 689.4466,77.6994 653.4426,77.6994 C615.0176,77.6994 575.7586,65.8314 541.8256,65.3924 C507.8916,64.9524 481.9996,79.4574 481.9996,79.4574 L481.9996,79.4634 C477.9996,80.8574 444.1966,93.3964 407.9076,93.3964 C369.4826,93.3964 330.4916,81.5284 296.5576,81.0894 C262.6236,80.6494 236.9996,95.1544 236.9996,95.1544 L236.9996,95.1764 C230.9996,97.1694 198.1106,108.9504 162.9326,108.9504 C124.5076,108.9504 84.6536,97.0824 50.7206,96.6434 C16.8216,96.2044 -9.4764,110.2534 -9.5304,110.2834 C-15.7754,112.5984 -48.1814,123.9324 -82.6834,123.9324 C-121.1084,123.9324 -160.8044,112.0644 -194.7374,111.6244 C-228.6714,111.1854 -255.0004,125.6904 -255.0004,125.6904 L-255.0004,196.0154 C-255.0004,196.0154 -228.7134,181.5114 -194.7794,181.9504 C-160.8454,182.3904 -121.4604,194.2574 -83.0344,194.2574 C-44.6104,194.2574 -9.0004,180.1924 -9.0004,180.1924 L-9.0004,180.0774 C-5.0004,177.7224 19.8286,166.5754 50.1866,166.9684 C84.1206,167.4084 124.0226,179.2764 162.4476,179.2764 C200.8736,179.2764 236.9996,165.2104 236.9996,165.2104 L236.9996,165.0754 C239.9996,162.7414 265.4776,151.0194 296.0426,151.4154 C329.9766,151.8544 369.4506,163.7214 407.8756,163.7214 C446.3006,163.7214 481.9996,149.6564 481.9996,149.6564 L481.9996,149.5984 C484.9996,147.9324 509.9556,135.3074 541.6526,135.7184 C575.5866,136.1574 615.0086,148.0244 653.4336,148.0244 C689.2326,148.0244 723.5546,135.8214 726.9996,134.1534 L726.9996,134.1674 C726.9996,134.1674 727.2786,134.1504 727.3336,134.1204 C727.6086,134.0164 727.9996,133.9594 727.9996,133.9594 L727.9996,133.8984 C730.9996,131.9464 756.1536,119.6984 787.3886,120.1024 C821.3226,120.5424 860.6236,132.4094 899.0486,132.4094 C937.4736,132.4094 972.9996,118.3444 972.9996,118.3444 L972.9996,118.2554 C975.9996,116.7114 1001.0376,103.9314 1032.9246,104.3444 C1066.8586,104.7834 1106.8916,116.6514 1145.3166,116.6514 C1183.7426,116.6514 1219.9996,102.5864 1219.9996,102.5864 L1219.9996,102.1894 C1223.9996,99.4334 1248.7406,88.3544 1278.4626,88.7394 C1312.3966,89.1794 1351.6606,101.0464 1390.0856,101.0464 C1428.5106,101.0464 1463.9996,86.9814 1463.9996,86.9814 L1463.9996,86.5784 C1466.9996,84.7834 1491.7836,72.5834 1523.2256,72.9914 C1557.1596,73.4304 1596.5416,85.2984 1634.9676,85.2984 C1673.3926,85.2984 1708.9996,71.2334 1708.9996,71.2334 L1708.9996,0.9074 C1708.9996,0.9074 1673.4086,14.9724 1634.9836,14.9724 C1596.5576,14.9724 1557.1916,3.1054 1523.2576,2.6654" mask="url(#vesch_flag-l)"/>
    </g>
    <g transform="translate(0 786)">
      <mask id="vesch_flag-n" fill="#fff">
        <use xlink:href="#vesch_flag-m"/>
      </mask>
      <path fill="#D5DA37" d="M1523.2576,2.3463 C1489.3236,1.9063 1463.1696,16.4113 1463.1696,16.4113 L1463.1716,16.6753 C1457.4356,18.8153 1424.7696,30.4013 1389.8926,30.4013 C1351.4676,30.4013 1312.4836,18.5343 1278.5496,18.0943 C1244.6166,17.6553 1218.9996,32.1593 1218.9996,32.1593 L1218.9996,32.4273 C1210.9996,34.8873 1179.6426,46.0063 1145.4656,46.0063 C1107.0406,46.0063 1067.2706,34.1393 1033.3366,33.6993 C999.4026,33.2603 972.9996,47.7643 972.9996,47.7643 L972.9996,47.8103 C968.9996,49.0753 935.6056,61.7653 899.0946,61.7653 C860.6696,61.7653 821.1376,49.8973 787.2036,49.4583 C754.3756,49.0323 728.8266,62.5923 727.1966,63.4763 C723.0976,65.0333 689.4456,77.3803 653.4426,77.3803 C615.0176,77.3803 575.7586,65.5123 541.8256,65.0733 C507.8916,64.6333 481.9996,79.1383 481.9996,79.1383 L481.9996,79.1443 C477.9996,80.5383 444.1966,93.0773 407.9076,93.0773 C369.4826,93.0773 330.4916,81.2093 296.5576,80.7703 C262.6236,80.3303 236.9996,94.8353 236.9996,94.8353 L236.9996,94.8573 C230.9996,96.8503 198.1106,108.6313 162.9326,108.6313 C124.5076,108.6313 84.6536,96.7633 50.7206,96.3243 C16.8166,95.8853 -9.4844,109.9393 -9.5314,109.9643 C-15.7764,112.2803 -48.1824,123.6133 -82.6834,123.6133 C-121.1084,123.6133 -160.8044,111.7453 -194.7374,111.3053 C-228.6714,110.8663 -255.0004,125.3713 -255.0004,125.3713 L-255.0004,195.6963 C-255.0004,195.6963 -228.7134,181.1923 -194.7794,181.6313 C-160.8454,182.0713 -121.4604,193.9383 -83.0344,193.9383 C-44.6104,193.9383 -9.0004,179.8733 -9.0004,179.8733 L-9.0004,179.7583 C-5.0004,177.4033 19.8286,166.2563 50.1866,166.6493 C84.1206,167.0893 124.0226,178.9573 162.4476,178.9573 C200.8736,178.9573 236.9996,164.8913 236.9996,164.8913 L236.9996,164.7563 C239.9996,162.4223 265.4776,150.7003 296.0426,151.0963 C329.9766,151.5353 369.4506,163.4023 407.8756,163.4023 C446.3006,163.4023 481.9996,149.3373 481.9996,149.3373 L481.9996,149.2793 C484.9996,147.6133 509.9556,134.9883 541.6526,135.3993 C575.5866,135.8383 615.0086,147.7053 653.4336,147.7053 C689.2326,147.7053 723.5546,135.5023 726.9996,133.8343 L726.9996,133.8483 C726.9996,133.8483 727.2786,133.8313 727.3336,133.8013 C727.6086,133.6973 727.9996,133.6403 727.9996,133.6403 L727.9996,133.5793 C730.9996,131.6273 756.1536,119.3793 787.3886,119.7833 C821.3226,120.2233 860.6236,132.0903 899.0486,132.0903 C937.4736,132.0903 972.9996,118.0253 972.9996,118.0253 L972.9996,117.9363 C975.9996,116.3923 1001.0376,103.6123 1032.9246,104.0253 C1066.8586,104.4643 1106.8916,116.3323 1145.3166,116.3323 C1183.7426,116.3323 1219.9996,102.2673 1219.9996,102.2673 L1219.9996,101.8703 C1223.9996,99.1143 1248.7406,88.0353 1278.4626,88.4203 C1312.3966,88.8603 1351.6606,100.7273 1390.0856,100.7273 C1428.5106,100.7273 1463.9996,86.6623 1463.9996,86.6623 L1463.9996,86.2593 C1466.9996,84.4643 1491.7836,72.2643 1523.2256,72.6723 C1557.1596,73.1113 1596.5416,84.9793 1634.9676,84.9793 C1673.3926,84.9793 1708.9996,70.9143 1708.9996,70.9143 L1708.9996,0.5883 C1708.9996,0.5883 1673.4086,14.6533 1634.9836,14.6533 C1596.5576,14.6533 1557.1916,2.7863 1523.2576,2.3463" mask="url(#vesch_flag-n)"/>
    </g>
  </g>
</svg>
