<svg xmlns="http://www.w3.org/2000/svg" xmlns:xlink="http://www.w3.org/1999/xlink" width="803" height="586" viewBox="0 0 803 586">
  <defs>
    <polygon id="vesch_flag_small-a" points="0 138.948 0 .242 802.84 .242 802.84 138.948"/>
    <polygon id="vesch_flag_small-c" points="0 139.061 0 .355 802.84 .355 802.84 139.061 0 139.061"/>
    <polygon id="vesch_flag_small-e" points="0 139.172 0 .467 802.84 .467 802.84 139.172"/>
    <polygon id="vesch_flag_small-g" points="0 139.285 0 .58 802.84 .58 802.84 139.285"/>
    <polygon id="vesch_flag_small-i" points="0 139.397 0 .692 802.84 .692 802.84 139.397 0 139.397"/>
    <polygon id="vesch_flag_small-k" points="0 115.509 0 0 802.84 0 802.84 115.509"/>
    <polygon id="vesch_flag_small-m" points="0 14.622 0 0 802.84 0 802.84 14.622"/>
  </defs>
  <g fill="none" fill-rule="evenodd">
    <g transform="translate(0 481)">
      <mask id="vesch_flag_small-b" fill="#fff">
        <use xlink:href="#vesch_flag_small-a"/>
      </mask>
      <path fill="#D5DA37" d="M750.3579,10.1943 C723.1689,10.1943 695.2039,1.7983 671.1929,1.4863 C647.1819,1.1753 628.7409,11.2833 628.7409,11.2833 L628.5999,11.3493 C628.5999,11.3493 603.3069,21.3013 576.1179,21.3013 C548.9289,21.3013 520.9649,12.9043 496.9539,12.5933 C472.9429,12.2823 454.5239,22.3903 454.5239,22.3903 L454.3609,22.4563 C454.3609,22.4563 429.0669,32.4083 401.8789,32.4083 C374.6899,32.4083 346.7249,24.0113 322.7139,23.7003 C298.7039,23.3893 280.3159,33.4753 280.3159,33.4753 L280.1209,33.5633 C280.1209,33.5633 254.8279,43.5153 227.6389,43.5153 C200.4499,43.5153 172.4859,35.1183 148.4749,34.8073 C124.4639,34.4963 106.0229,44.6043 106.0229,44.6043 L105.8819,44.6703 C105.8819,44.6703 80.5879,54.6223 53.3999,54.6223 C26.2109,54.6223 -1.7531,46.2253 -25.7651,45.9143 C-49.7751,45.6033 -68.1911,55.7023 -68.1911,55.7023 L-68.3571,55.7773 C-68.3571,55.7773 -93.6511,65.7293 -120.8391,65.7293 C-148.0281,65.7293 -175.9931,57.3323 -200.0041,57.0213 C-224.0151,56.7103 -242.2871,66.7493 -242.2871,66.7493 L-242.5971,66.8833 C-242.5971,66.8833 -267.8901,76.8363 -295.0791,76.8363 C-322.2681,76.8363 -350.2321,68.4383 -374.2431,68.1283 C-398.2541,67.8173 -416.5331,77.8593 -416.5331,77.8593 L-416.8361,77.9913 C-416.8361,77.9913 -442.1301,87.9433 -469.3181,87.9433 C-496.5071,87.9433 -524.4721,79.5463 -548.4831,79.2343 C-572.4941,78.9233 -591.0001,89.1873 -591.0001,89.1873 L-591.0001,138.9483 C-591.0001,138.9483 -572.4941,128.6843 -548.4831,128.9963 C-524.4721,129.3063 -496.5071,137.7043 -469.3181,137.7043 C-442.1301,137.7043 -416.8361,127.7523 -416.8361,127.7523 L-416.4751,127.5903 C-416.4751,127.5903 -398.2541,117.5783 -374.2431,117.8883 C-350.2321,118.2003 -322.2681,126.5963 -295.0791,126.5963 C-267.8901,126.5963 -242.5971,116.6443 -242.5971,116.6443 L-242.1341,116.4263 C-242.1341,116.4263 -224.0151,106.4703 -200.0041,106.7823 C-175.9931,107.0923 -148.0281,115.4903 -120.8391,115.4903 C-93.6511,115.4903 -68.3571,105.5383 -68.3571,105.5383 L-68.0561,105.3943 C-68.0561,105.3943 -49.7751,95.3643 -25.7651,95.6743 C-1.7531,95.9863 26.2109,104.3823 53.3999,104.3823 C80.5879,104.3823 105.8819,94.4303 105.8819,94.4303 L106.0119,94.3793 C106.0119,94.3793 124.4639,84.2573 148.4749,84.5683 C172.4859,84.8793 200.4499,93.2763 227.6389,93.2763 C254.8279,93.2763 280.1209,83.3243 280.1209,83.3243 L280.3059,83.2393 C280.3059,83.2393 298.7039,73.1503 322.7139,73.4613 C346.7249,73.7723 374.6899,82.1703 401.8789,82.1703 C429.0669,82.1703 454.3609,72.2173 454.3609,72.2173 L454.5339,72.1323 C454.5339,72.1323 472.9429,62.0443 496.9539,62.3543 C520.9649,62.6653 548.9289,71.0623 576.1179,71.0623 C603.3069,71.0623 628.5999,61.1103 628.5999,61.1103 L628.7519,61.0483 C628.7519,61.0483 647.1819,50.9363 671.1929,51.2483 C695.2039,51.5583 723.1689,59.9563 750.3579,59.9563 C777.5459,59.9563 802.8399,50.0043 802.8399,50.0043 L802.8399,0.2423 C802.8399,0.2423 777.5459,10.1943 750.3579,10.1943" mask="url(#vesch_flag_small-b)"/>
    </g>
    <g transform="translate(0 380)">
      <mask id="vesch_flag_small-d" fill="#fff">
        <use xlink:href="#vesch_flag_small-c"/>
      </mask>
      <path fill="#D5DA37" d="M750.3579,10.3066 C723.1689,10.3066 695.2039,1.9106 671.1929,1.5986 C647.1819,1.2876 628.7409,11.3956 628.7409,11.3956 L628.5999,11.4616 C628.5999,11.4616 603.3069,21.4136 576.1179,21.4136 C548.9289,21.4136 520.9649,13.0166 496.9539,12.7056 C472.9429,12.3946 454.5239,22.5026 454.5239,22.5026 L454.3609,22.5686 C454.3609,22.5686 429.0669,32.5206 401.8789,32.5206 C374.6899,32.5206 346.7249,24.1236 322.7139,23.8126 C298.7039,23.5016 280.3159,33.5876 280.3159,33.5876 L280.1209,33.6756 C280.1209,33.6756 254.8279,43.6276 227.6389,43.6276 C200.4499,43.6276 172.4859,35.2306 148.4749,34.9196 C124.4639,34.6086 106.0229,44.7166 106.0229,44.7166 L105.8819,44.7826 C105.8819,44.7826 80.5879,54.7346 53.3999,54.7346 C26.2109,54.7346 -1.7531,46.3376 -25.7651,46.0266 C-49.7751,45.7156 -68.1911,55.8146 -68.1911,55.8146 L-68.3571,55.8896 C-68.3571,55.8896 -93.6511,65.8416 -120.8391,65.8416 C-148.0281,65.8416 -175.9931,57.4446 -200.0041,57.1336 C-224.0151,56.8226 -242.2871,66.8616 -242.2871,66.8616 L-242.5971,66.9956 C-242.5971,66.9956 -267.8901,76.9486 -295.0791,76.9486 C-322.2681,76.9486 -350.2321,68.5516 -374.2431,68.2406 C-398.2541,67.9296 -416.5331,77.9716 -416.5331,77.9716 L-416.8361,78.1036 C-416.8361,78.1036 -442.1301,88.0556 -469.3181,88.0556 C-496.5071,88.0556 -524.4721,79.6586 -548.4831,79.3476 C-572.4941,79.0356 -591.0001,89.2996 -591.0001,89.2996 L-591.0001,139.0606 C-591.0001,139.0606 -572.4941,128.7966 -548.4831,129.1086 C-524.4721,129.4186 -496.5071,137.8166 -469.3181,137.8166 C-442.1301,137.8166 -416.8361,127.8646 -416.8361,127.8646 L-416.4751,127.7026 C-416.4751,127.7026 -398.2541,117.6906 -374.2431,118.0006 C-350.2321,118.3126 -322.2681,126.7086 -295.0791,126.7086 C-267.8901,126.7086 -242.5971,116.7566 -242.5971,116.7566 L-242.1341,116.5386 C-242.1341,116.5386 -224.0151,106.5826 -200.0041,106.8946 C-175.9931,107.2046 -148.0281,115.6026 -120.8391,115.6026 C-93.6511,115.6026 -68.3571,105.6506 -68.3571,105.6506 L-68.0561,105.5066 C-68.0561,105.5066 -49.7751,95.4766 -25.7651,95.7866 C-1.7531,96.0986 26.2109,104.4956 53.3999,104.4956 C80.5879,104.4956 105.8819,94.5436 105.8819,94.5436 L106.0119,94.4916 C106.0119,94.4916 124.4639,84.3696 148.4749,84.6806 C172.4859,84.9916 200.4499,93.3886 227.6389,93.3886 C254.8279,93.3886 280.1209,83.4366 280.1209,83.4366 L280.3059,83.3516 C280.3059,83.3516 298.7039,73.2626 322.7139,73.5746 C346.7249,73.8846 374.6899,82.2826 401.8789,82.2826 C429.0669,82.2826 454.3609,72.3296 454.3609,72.3296 L454.5339,72.2446 C454.5339,72.2446 472.9429,62.1566 496.9539,62.4666 C520.9649,62.7786 548.9289,71.1746 576.1179,71.1746 C603.3069,71.1746 628.5999,61.2226 628.5999,61.2226 L628.7519,61.1606 C628.7519,61.1606 647.1819,51.0486 671.1929,51.3606 C695.2039,51.6706 723.1689,60.0686 750.3579,60.0686 C777.5459,60.0686 802.8399,50.1166 802.8399,50.1166 L802.8399,0.3546 C802.8399,0.3546 777.5459,10.3066 750.3579,10.3066" mask="url(#vesch_flag_small-d)"/>
    </g>
    <g transform="translate(0 279)">
      <mask id="vesch_flag_small-f" fill="#fff">
        <use xlink:href="#vesch_flag_small-e"/>
      </mask>
      <path fill="#D5DA37" d="M750.3579,10.4194 C723.1689,10.4194 695.2039,2.0224 671.1929,1.7114 C647.1819,1.4004 628.7409,11.5084 628.7409,11.5084 L628.5999,11.5744 C628.5999,11.5744 603.3069,21.5264 576.1179,21.5264 C548.9289,21.5264 520.9649,13.1294 496.9539,12.8184 C472.9429,12.5074 454.5239,22.6154 454.5239,22.6154 L454.3609,22.6814 C454.3609,22.6814 429.0669,32.6334 401.8789,32.6334 C374.6899,32.6334 346.7249,24.2354 322.7139,23.9254 C298.7039,23.6144 280.3159,33.7004 280.3159,33.7004 L280.1209,33.7884 C280.1209,33.7884 254.8279,43.7404 227.6389,43.7404 C200.4499,43.7404 172.4859,35.3424 148.4749,35.0314 C124.4639,34.7214 106.0229,44.8284 106.0229,44.8284 L105.8819,44.8954 C105.8819,44.8954 80.5879,54.8474 53.3999,54.8474 C26.2109,54.8474 -1.7531,46.4494 -25.7651,46.1384 C-49.7751,45.8274 -68.1911,55.9274 -68.1911,55.9274 L-68.3571,56.0024 C-68.3571,56.0024 -93.6511,65.9544 -120.8391,65.9544 C-148.0281,65.9544 -175.9931,57.5564 -200.0041,57.2454 C-224.0151,56.9344 -242.2871,66.9744 -242.2871,66.9744 L-242.5971,67.1084 C-242.5971,67.1084 -267.8901,77.0604 -295.0791,77.0604 C-322.2681,77.0604 -350.2321,68.6634 -374.2431,68.3524 C-398.2541,68.0414 -416.5331,78.0844 -416.5331,78.0844 L-416.8361,78.2154 C-416.8361,78.2154 -442.1301,88.1684 -469.3181,88.1684 C-496.5071,88.1684 -524.4721,79.7704 -548.4831,79.4604 C-572.4941,79.1484 -591.0001,89.4124 -591.0001,89.4124 L-591.0001,139.1724 C-591.0001,139.1724 -572.4941,128.9094 -548.4831,129.2204 C-524.4721,129.5314 -496.5071,137.9284 -469.3181,137.9284 C-442.1301,137.9284 -416.8361,127.9764 -416.8361,127.9764 L-416.4751,127.8164 C-416.4751,127.8164 -398.2541,117.8024 -374.2431,118.1134 C-350.2321,118.4244 -322.2681,126.8224 -295.0791,126.8224 C-267.8901,126.8224 -242.5971,116.8704 -242.5971,116.8704 L-242.1341,116.6514 C-242.1341,116.6514 -224.0151,106.6964 -200.0041,107.0064 C-175.9931,107.3174 -148.0281,115.7144 -120.8391,115.7144 C-93.6511,115.7144 -68.3571,105.7624 -68.3571,105.7624 L-68.0561,105.6194 C-68.0561,105.6194 -49.7751,95.5884 -25.7651,95.8994 C-1.7531,96.2114 26.2109,104.6084 53.3999,104.6084 C80.5879,104.6084 105.8819,94.6564 105.8819,94.6564 L106.0119,94.6034 C106.0119,94.6034 124.4639,84.4824 148.4749,84.7934 C172.4859,85.1034 200.4499,93.5014 227.6389,93.5014 C254.8279,93.5014 280.1209,83.5484 280.1209,83.5484 L280.3059,83.4634 C280.3059,83.4634 298.7039,73.3754 322.7139,73.6864 C346.7249,73.9974 374.6899,82.3944 401.8789,82.3944 C429.0669,82.3944 454.3609,72.4424 454.3609,72.4424 L454.5339,72.3574 C454.5339,72.3574 472.9429,62.2684 496.9539,62.5794 C520.9649,62.8904 548.9289,71.2874 576.1179,71.2874 C603.3069,71.2874 628.5999,61.3354 628.5999,61.3354 L628.7519,61.2724 C628.7519,61.2724 647.1819,51.1614 671.1929,51.4724 C695.2039,51.7834 723.1689,60.1804 750.3579,60.1804 C777.5459,60.1804 802.8399,50.2284 802.8399,50.2284 L802.8399,0.4674 C802.8399,0.4674 777.5459,10.4194 750.3579,10.4194" mask="url(#vesch_flag_small-f)"/>
    </g>
    <g transform="translate(0 178)">
      <mask id="vesch_flag_small-h" fill="#fff">
        <use xlink:href="#vesch_flag_small-g"/>
      </mask>
      <path fill="#D5DA37" d="M750.3579,10.5317 C723.1689,10.5317 695.2039,2.1347 671.1929,1.8237 C647.1819,1.5127 628.7409,11.6207 628.7409,11.6207 L628.5999,11.6867 C628.5999,11.6867 603.3069,21.6387 576.1179,21.6387 C548.9289,21.6387 520.9649,13.2417 496.9539,12.9307 C472.9429,12.6197 454.5239,22.7277 454.5239,22.7277 L454.3609,22.7937 C454.3609,22.7937 429.0669,32.7457 401.8789,32.7457 C374.6899,32.7457 346.7249,24.3487 322.7139,24.0377 C298.7039,23.7267 280.3159,33.8127 280.3159,33.8127 L280.1209,33.9007 C280.1209,33.9007 254.8279,43.8527 227.6389,43.8527 C200.4499,43.8527 172.4859,35.4547 148.4749,35.1447 C124.4639,34.8337 106.0229,44.9407 106.0229,44.9407 L105.8819,45.0077 C105.8819,45.0077 80.5879,54.9597 53.3999,54.9597 C26.2109,54.9597 -1.7531,46.5617 -25.7651,46.2507 C-49.7751,45.9407 -68.1911,56.0397 -68.1911,56.0397 L-68.3571,56.1147 C-68.3571,56.1147 -93.6511,66.0667 -120.8391,66.0667 C-148.0281,66.0667 -175.9931,57.6687 -200.0041,57.3577 C-224.0151,57.0467 -242.2871,67.0867 -242.2871,67.0867 L-242.5971,67.2207 C-242.5971,67.2207 -267.8901,77.1737 -295.0791,77.1737 C-322.2681,77.1737 -350.2321,68.7757 -374.2431,68.4647 C-398.2541,68.1537 -416.5331,78.1967 -416.5331,78.1967 L-416.8361,78.3277 C-416.8361,78.3277 -442.1301,88.2807 -469.3181,88.2807 C-496.5071,88.2807 -524.4721,79.8827 -548.4831,79.5717 C-572.4941,79.2607 -591.0001,89.5237 -591.0001,89.5237 L-591.0001,139.2847 C-591.0001,139.2847 -572.4941,129.0217 -548.4831,129.3327 C-524.4721,129.6437 -496.5071,138.0407 -469.3181,138.0407 C-442.1301,138.0407 -416.8361,128.0887 -416.8361,128.0887 L-416.4751,127.9277 C-416.4751,127.9277 -398.2541,117.9147 -374.2431,118.2257 C-350.2321,118.5367 -322.2681,126.9337 -295.0791,126.9337 C-267.8901,126.9337 -242.5971,116.9817 -242.5971,116.9817 L-242.1341,116.7637 C-242.1341,116.7637 -224.0151,106.8077 -200.0041,107.1187 C-175.9931,107.4297 -148.0281,115.8267 -120.8391,115.8267 C-93.6511,115.8267 -68.3571,105.8747 -68.3571,105.8747 L-68.0561,105.7317 C-68.0561,105.7317 -49.7751,95.7007 -25.7651,96.0117 C-1.7531,96.3237 26.2109,104.7197 53.3999,104.7197 C80.5879,104.7197 105.8819,94.7677 105.8819,94.7677 L106.0119,94.7167 C106.0119,94.7167 124.4639,84.5947 148.4749,84.9057 C172.4859,85.2167 200.4499,93.6137 227.6389,93.6137 C254.8279,93.6137 280.1209,83.6607 280.1209,83.6607 L280.3059,83.5767 C280.3059,83.5767 298.7039,73.4877 322.7139,73.7987 C346.7249,74.1097 374.6899,82.5067 401.8789,82.5067 C429.0669,82.5067 454.3609,72.5537 454.3609,72.5537 L454.5339,72.4697 C454.5339,72.4697 472.9429,62.3807 496.9539,62.6917 C520.9649,63.0027 548.9289,71.3997 576.1179,71.3997 C603.3069,71.3997 628.5999,61.4477 628.5999,61.4477 L628.7519,61.3847 C628.7519,61.3847 647.1819,51.2737 671.1929,51.5847 C695.2039,51.8957 723.1689,60.2927 750.3579,60.2927 C777.5459,60.2927 802.8399,50.3407 802.8399,50.3407 L802.8399,0.5797 C802.8399,0.5797 777.5459,10.5317 750.3579,10.5317" mask="url(#vesch_flag_small-h)"/>
    </g>
    <g transform="translate(0 77)">
      <mask id="vesch_flag_small-j" fill="#fff">
        <use xlink:href="#vesch_flag_small-i"/>
      </mask>
      <path fill="#D5DA37" d="M750.3579,10.644 C723.1689,10.644 695.2039,2.247 671.1929,1.936 C647.1819,1.625 628.7409,11.733 628.7409,11.733 L628.5999,11.799 C628.5999,11.799 603.3069,21.751 576.1179,21.751 C548.9289,21.751 520.9649,13.354 496.9539,13.043 C472.9429,12.732 454.5239,22.84 454.5239,22.84 L454.3609,22.906 C454.3609,22.906 429.0669,32.858 401.8789,32.858 C374.6899,32.858 346.7249,24.461 322.7139,24.15 C298.7039,23.839 280.3159,33.925 280.3159,33.925 L280.1209,34.013 C280.1209,34.013 254.8279,43.965 227.6389,43.965 C200.4499,43.965 172.4859,35.568 148.4749,35.257 C124.4639,34.946 106.0229,45.054 106.0229,45.054 L105.8819,45.12 C105.8819,45.12 80.5879,55.072 53.3999,55.072 C26.2109,55.072 -1.7531,46.675 -25.7651,46.364 C-49.7751,46.053 -68.1911,56.152 -68.1911,56.152 L-68.3571,56.227 C-68.3571,56.227 -93.6511,66.179 -120.8391,66.179 C-148.0281,66.179 -175.9931,57.781 -200.0041,57.471 C-224.0151,57.16 -242.2871,67.199 -242.2871,67.199 L-242.5971,67.333 C-242.5971,67.333 -267.8901,77.286 -295.0791,77.286 C-322.2681,77.286 -350.2321,68.888 -374.2431,68.577 C-398.2541,68.267 -416.5331,78.309 -416.5331,78.309 L-416.8361,78.44 C-416.8361,78.44 -442.1301,88.393 -469.3181,88.393 C-496.5071,88.393 -524.4721,79.995 -548.4831,79.684 C-572.4941,79.373 -591.0001,89.637 -591.0001,89.637 L-591.0001,139.397 C-591.0001,139.397 -572.4941,129.134 -548.4831,129.445 C-524.4721,129.756 -496.5071,138.153 -469.3181,138.153 C-442.1301,138.153 -416.8361,128.201 -416.8361,128.201 L-416.4751,128.04 C-416.4751,128.04 -398.2541,118.027 -374.2431,118.338 C-350.2321,118.649 -322.2681,127.046 -295.0791,127.046 C-267.8901,127.046 -242.5971,117.094 -242.5971,117.094 L-242.1341,116.876 C-242.1341,116.876 -224.0151,106.92 -200.0041,107.231 C-175.9931,107.542 -148.0281,115.939 -120.8391,115.939 C-93.6511,115.939 -68.3571,105.987 -68.3571,105.987 L-68.0561,105.844 C-68.0561,105.844 -49.7751,95.813 -25.7651,96.124 C-1.7531,96.436 26.2109,104.832 53.3999,104.832 C80.5879,104.832 105.8819,94.88 105.8819,94.88 L106.0119,94.829 C106.0119,94.829 124.4639,84.707 148.4749,85.018 C172.4859,85.329 200.4499,93.726 227.6389,93.726 C254.8279,93.726 280.1209,83.773 280.1209,83.773 L280.3059,83.689 C280.3059,83.689 298.7039,73.6 322.7139,73.911 C346.7249,74.222 374.6899,82.619 401.8789,82.619 C429.0669,82.619 454.3609,72.667 454.3609,72.667 L454.5339,72.582 C454.5339,72.582 472.9429,62.493 496.9539,62.804 C520.9649,63.115 548.9289,71.512 576.1179,71.512 C603.3069,71.512 628.5999,61.56 628.5999,61.56 L628.7519,61.497 C628.7519,61.497 647.1819,51.386 671.1929,51.697 C695.2039,52.008 723.1689,60.405 750.3579,60.405 C777.5459,60.405 802.8399,50.453 802.8399,50.453 L802.8399,0.692 C802.8399,0.692 777.5459,10.644 750.3579,10.644" mask="url(#vesch_flag_small-j)"/>
    </g>
    <mask id="vesch_flag_small-l" fill="#fff">
      <use xlink:href="#vesch_flag_small-k"/>
    </mask>
    <path fill="#D5DA37" d="M750.3579,-13.2437 C723.1689,-13.2437 695.2039,-21.6407 671.1929,-21.9517 C647.1819,-22.2627 628.7409,-12.1547 628.7409,-12.1547 L628.5999,-12.0887 C628.5999,-12.0887 603.3069,-2.1367 576.1179,-2.1367 C548.9289,-2.1367 520.9649,-10.5337 496.9539,-10.8447 C472.9429,-11.1557 454.5239,-1.0477 454.5239,-1.0477 L454.3609,-0.9817 C454.3609,-0.9817 429.0669,8.9703 401.8789,8.9703 C374.6899,8.9703 346.7249,0.5733 322.7139,0.2623 C298.7039,-0.0487 280.3159,10.0373 280.3159,10.0373 L280.1209,10.1253 C280.1209,10.1253 254.8279,20.0773 227.6389,20.0773 C200.4499,20.0773 172.4859,11.6803 148.4749,11.3693 C124.4639,11.0583 106.0229,21.1663 106.0229,21.1663 L105.8819,21.2323 C105.8819,21.2323 80.5879,31.1843 53.3999,31.1843 C26.2109,31.1843 -1.7531,22.7873 -25.7651,22.4763 C-49.7751,22.1653 -68.1911,32.2643 -68.1911,32.2643 L-68.3571,32.3393 C-68.3571,32.3393 -93.6511,42.2913 -120.8391,42.2913 C-148.0281,42.2913 -175.9931,33.8943 -200.0041,33.5833 C-224.0151,33.2723 -242.2871,43.3113 -242.2871,43.3113 L-242.5971,43.4453 C-242.5971,43.4453 -267.8901,53.3983 -295.0791,53.3983 C-322.2681,53.3983 -350.2321,45.0003 -374.2431,44.6903 C-398.2541,44.3793 -416.5331,54.4213 -416.5331,54.4213 L-416.8361,54.5523 C-416.8361,54.5523 -442.1301,64.5053 -469.3181,64.5053 C-496.5071,64.5053 -524.4721,56.1073 -548.4831,55.7963 C-572.4941,55.4853 -591.0001,65.7493 -591.0001,65.7493 L-591.0001,115.5093 C-591.0001,115.5093 -572.4941,105.2463 -548.4831,105.5573 C-524.4721,105.8683 -496.5071,114.2653 -469.3181,114.2653 C-442.1301,114.2653 -416.8361,104.3133 -416.8361,104.3133 L-416.4751,104.1523 C-416.4751,104.1523 -398.2541,94.1393 -374.2431,94.4503 C-350.2321,94.7613 -322.2681,103.1583 -295.0791,103.1583 C-267.8901,103.1583 -242.5971,93.2063 -242.5971,93.2063 L-242.1341,92.9883 C-242.1341,92.9883 -224.0151,83.0323 -200.0041,83.3433 C-175.9931,83.6543 -148.0281,92.0513 -120.8391,92.0513 C-93.6511,92.0513 -68.3571,82.0993 -68.3571,82.0993 L-68.0561,81.9563 C-68.0561,81.9563 -49.7751,71.9253 -25.7651,72.2363 C-1.7531,72.5483 26.2109,80.9453 53.3999,80.9453 C80.5879,80.9453 105.8819,70.9933 105.8819,70.9933 L106.0119,70.9413 C106.0119,70.9413 124.4639,60.8193 148.4749,61.1303 C172.4859,61.4413 200.4499,69.8383 227.6389,69.8383 C254.8279,69.8383 280.1209,59.8863 280.1209,59.8863 L280.3059,59.8013 C280.3059,59.8013 298.7039,49.7123 322.7139,50.0233 C346.7249,50.3343 374.6899,58.7313 401.8789,58.7313 C429.0669,58.7313 454.3609,48.7793 454.3609,48.7793 L454.5339,48.6943 C454.5339,48.6943 472.9429,38.6053 496.9539,38.9163 C520.9649,39.2273 548.9289,47.6243 576.1179,47.6243 C603.3069,47.6243 628.5999,37.6723 628.5999,37.6723 L628.7519,37.6093 C628.7519,37.6093 647.1819,27.4983 671.1929,27.8093 C695.2039,28.1203 723.1689,36.5173 750.3579,36.5173 C777.5459,36.5173 802.8399,26.5653 802.8399,26.5653 L802.8399,-23.1957 C802.8399,-23.1957 777.5459,-13.2437 750.3579,-13.2437" mask="url(#vesch_flag_small-l)"/>
    <g>
      <mask id="vesch_flag_small-n" fill="#fff">
        <use xlink:href="#vesch_flag_small-m"/>
      </mask>
      <path fill="#D5DA37" d="M750.3579,-114.1309 C723.1689,-114.1309 695.2039,-122.5279 671.1929,-122.8389 C647.1819,-123.1509 628.7409,-113.0429 628.7409,-113.0429 L628.5999,-112.9769 C628.5999,-112.9769 603.3069,-103.0249 576.1179,-103.0249 C548.9289,-103.0249 520.9649,-111.4219 496.9539,-111.7329 C472.9429,-112.0439 454.5239,-101.9359 454.5239,-101.9359 L454.3609,-101.8699 C454.3609,-101.8699 429.0669,-91.9179 401.8789,-91.9179 C374.6899,-91.9179 346.7249,-100.3149 322.7139,-100.6259 C298.7039,-100.9369 280.3159,-90.8509 280.3159,-90.8509 L280.1209,-90.7629 C280.1209,-90.7629 254.8279,-80.8109 227.6389,-80.8109 C200.4499,-80.8109 172.4859,-89.2079 148.4749,-89.5189 C124.4639,-89.8299 106.0229,-79.7219 106.0229,-79.7219 L105.8819,-79.6559 C105.8819,-79.6559 80.5879,-69.7039 53.3999,-69.7039 C26.2109,-69.7039 -1.7531,-78.1009 -25.7651,-78.4119 C-49.7751,-78.7229 -68.1911,-68.6239 -68.1911,-68.6239 L-68.3571,-68.5489 C-68.3571,-68.5489 -93.6511,-58.5969 -120.8391,-58.5969 C-148.0281,-58.5969 -175.9931,-66.9939 -200.0041,-67.3049 C-224.0151,-67.6159 -242.2871,-57.5769 -242.2871,-57.5769 L-242.5971,-57.4419 C-242.5971,-57.4419 -267.8901,-47.4899 -295.0791,-47.4899 C-322.2681,-47.4899 -350.2321,-55.8869 -374.2431,-56.1979 C-398.2541,-56.5089 -416.5331,-46.4659 -416.5331,-46.4659 L-416.8361,-46.3349 C-416.8361,-46.3349 -442.1301,-36.3829 -469.3181,-36.3829 C-496.5071,-36.3829 -524.4721,-44.7799 -548.4831,-45.0909 C-572.4941,-45.4019 -591.0001,-35.1389 -591.0001,-35.1389 L-591.0001,14.6221 C-591.0001,14.6221 -572.4941,4.3591 -548.4831,4.6701 C-524.4721,4.9811 -496.5071,13.3781 -469.3181,13.3781 C-442.1301,13.3781 -416.8361,3.4261 -416.8361,3.4261 L-416.4751,3.2651 C-416.4751,3.2651 -398.2541,-6.7479 -374.2431,-6.4369 C-350.2321,-6.1259 -322.2681,2.2711 -295.0791,2.2711 C-267.8901,2.2711 -242.5971,-7.6809 -242.5971,-7.6809 L-242.1341,-7.8999 C-242.1341,-7.8999 -224.0151,-17.8549 -200.0041,-17.5439 C-175.9931,-17.2329 -148.0281,-8.8359 -120.8391,-8.8359 C-93.6511,-8.8359 -68.3571,-18.7879 -68.3571,-18.7879 L-68.0561,-18.9309 C-68.0561,-18.9309 -49.7751,-28.9619 -25.7651,-28.6509 C-1.7531,-28.3399 26.2109,-19.9429 53.3999,-19.9429 C80.5879,-19.9429 105.8819,-29.8949 105.8819,-29.8949 L106.0119,-29.9469 C106.0119,-29.9469 124.4639,-40.0679 148.4749,-39.7569 C172.4859,-39.4469 200.4499,-31.0489 227.6389,-31.0489 C254.8279,-31.0489 280.1209,-41.0019 280.1209,-41.0019 L280.3059,-41.0869 C280.3059,-41.0869 298.7039,-51.1749 322.7139,-50.8639 C346.7249,-50.5529 374.6899,-42.1559 401.8789,-42.1559 C429.0669,-42.1559 454.3609,-52.1089 454.3609,-52.1089 L454.5339,-52.1929 C454.5339,-52.1929 472.9429,-62.2819 496.9539,-61.9709 C520.9649,-61.6599 548.9289,-53.2629 576.1179,-53.2629 C603.3069,-53.2629 628.5999,-63.2149 628.5999,-63.2149 L628.7519,-63.2779 C628.7519,-63.2779 647.1819,-73.3889 671.1929,-73.0779 C695.2039,-72.7669 723.1689,-64.3699 750.3579,-64.3699 C777.5459,-64.3699 802.8399,-74.3219 802.8399,-74.3219 L802.8399,-124.0829 C802.8399,-124.0829 777.5459,-114.1309 750.3579,-114.1309" mask="url(#vesch_flag_small-n)"/>
    </g>
  </g>
</svg>
