<svg xmlns="http://www.w3.org/2000/svg" width="184" height="79" viewBox="0 0 184 79">
  <g fill="none" fill-rule="evenodd">
    <path fill="#2C4456" d="M40.7356 46.4948C38.9166 46.4708 37.4566 47.1268 37.0566 47.3248L38.7316 51.1678C39.3086 51.0278 39.9916 50.9228 40.7356 50.9328 42.8766 50.9608 45.3706 51.7088 47.7956 51.7088 50.2206 51.7088 52.4756 50.7108 52.4756 50.7108 52.5586 50.1138 52.5936 49.7228 52.5936 49.0818 52.5936 41.2138 46.6416 37.2358 40.2206 37.2358 33.8406 37.2358 28.0686 41.5198 28.0686 49.2128 28.0686 56.8618 34.1606 61.3208 40.6226 61.3208 43.5616 61.3208 46.4376 60.3768 48.7036 58.6278L46.8006 54.2628C45.2386 55.8748 42.9676 56.7308 40.7056 56.7308 36.6306 56.7308 32.5136 54.4138 32.5136 49.2998 32.5136 44.1858 36.1036 41.8698 40.2206 41.8698 43.7216 41.8698 47.0626 43.5178 47.9416 47.2698 47.8926 47.2698 47.8456 47.2718 47.7956 47.2718 45.3706 47.2718 42.8766 46.5228 40.7356 46.4948M20.41 38.0961C20.41 38.0961 18.689 40.0641 17.627 43.0471 16.565 46.0291 16.018 49.7561 14.786 53.1221 14.375 54.2431 13.717 55.4821 13.023 56.6371L5.256 38.2011.186 38.2011 10.095 60.9171 15.864 60.9171C15.864 60.9171 17.83 58.0551 19.063 54.6881 20.295 51.3221 20.842 47.5961 21.904 44.6131 22.966 41.6311 25.628 38.0631 25.628 38.0631L20.41 38.0961zM127.8829 38.2013L127.8829 46.7683 127.8829 47.2713C127.0159 47.4933 125.8459 47.7153 124.6339 47.7153 122.2089 47.7153 119.7149 46.9663 117.5739 46.9383 116.8239 46.9293 116.1369 47.0353 115.5569 47.1773L115.5569 38.2013 111.0979 38.2013 111.0979 60.8433 115.5569 60.8433 115.5569 51.8383 115.5569 51.6153C116.1369 51.4733 116.8239 51.3663 117.5739 51.3763 119.7149 51.4043 122.2089 52.1533 124.6339 52.1533 125.8459 52.1533 127.0159 51.9313 127.8829 51.7093L127.8829 60.8433 132.3419 60.8433 132.3419 38.2013 127.8829 38.2013zM96.7107 56.9966C92.6567 56.9966 88.6027 54.6366 88.6027 49.5226 88.6027 44.4076 92.5747 42.0036 96.6697 42.0036 98.6727 42.0036 100.7567 42.6136 102.3527 43.7896L104.0947 39.5236C101.9347 38.1576 99.3177 37.4576 96.6697 37.4576 90.3227 37.4576 84.1397 41.7416 84.1397 49.4346 84.1397 57.0836 90.1997 61.5426 96.6287 61.5426 99.4427 61.5426 102.1937 60.7146 104.3977 59.0896L102.6387 54.7806C101.0187 56.2076 98.8097 56.9966 96.7107 56.9966M68.2001 46.5499C63.7851 46.5779 63.3491 45.3859 63.2611 44.2769 63.1381 42.7219 65.1241 41.8349 67.8501 41.8289 70.4371 41.8229 72.6681 42.2789 74.7301 43.2949L76.3481 39.5179C73.4891 37.8919 70.7581 37.4579 67.8941 37.4579 62.8681 37.4579 58.5401 40.1679 58.5401 44.2769 58.5401 49.2159 62.4741 51.0079 67.8941 51.0079 72.6151 51.0079 73.9991 51.8199 74.0001 53.4999 74.0011 55.8599 72.0021 57.2059 67.4501 57.1719 64.0141 57.1459 61.5731 55.3699 59.7981 54.0389L58.0561 58.0739C60.4841 60.2219 64.1591 61.4109 67.4501 61.5429 73.9991 61.8049 78.4591 58.9199 78.4591 53.4999 78.4591 49.8279 76.8841 46.4949 68.2001 46.5499"/>
    <path fill="#E1E33B" d="M144.7278,5.0016 C131.7588,5.0016 121.2078,15.5526 121.2078,28.5216 C121.2078,41.4906 131.7588,52.0416 144.7278,52.0416 C157.6968,52.0416 168.2478,41.4906 168.2478,28.5216 C168.2478,15.5526 157.6968,5.0016 144.7278,5.0016 M144.7278,56.4796 C129.3118,56.4796 116.7698,43.9376 116.7698,28.5216 C116.7698,13.1056 129.3118,0.5636 144.7278,0.5636 C160.1438,0.5636 172.6858,13.1056 172.6858,28.5216 C172.6858,43.9376 160.1438,56.4796 144.7278,56.4796"/>
    <polygon fill="#E1E33B" points="152.305 18.675 157.375 18.675 153.235 29.853 148.353 29.853"/>
    <path fill="#E1E33B" d="M138.039 18.5699C138.039 18.5699 139.76 20.5379 140.822 23.5209 141.884 26.5029 142.431 30.2299 143.663 33.5959 144.074 34.7169 144.732 35.9559 145.426 37.1109L147.91 41.3909 142.585 41.3909C142.585 41.3909 140.619 38.5289 139.386 35.1619 138.154 31.7959 137.607 28.0699 136.545 25.0869 135.483 22.1039 132.821 18.5369 132.821 18.5369L138.039 18.5699zM177.627 37.5442C177.197 39.8112 179.148 41.7612 181.414 41.3312 182.674 41.0932 183.704 40.0632 183.942 38.8042 184.372 36.5372 182.421 34.5872 180.155 35.0162 178.896 35.2552 177.866 36.2852 177.627 37.5442"/>
    <path fill="#2C4456" d="M34.2162 77.8533C33.7862 78.2223 33.2052 78.4113 32.6092 78.4113 31.4252 78.4113 30.3082 77.6423 30.3082 76.3223 30.3082 74.9943 31.4482 74.2553 32.6172 74.2553 33.1902 74.2553 33.7032 74.3913 34.1332 74.7153L33.6132 75.3183C33.3182 75.1153 32.9862 75.0393 32.6172 75.0393 31.8622 75.0393 31.1312 75.4543 31.1312 76.3373 31.1312 77.2193 31.8782 77.6273 32.6242 77.6273 33.0322 77.6273 33.4612 77.4763 33.7632 77.2043L34.2162 77.8533zM36.9474 77.5063L39.3994 77.5063 39.3994 78.2903 36.1784 78.2903 36.1784 74.3833 39.2554 74.3833 39.2554 75.1603 36.9474 75.1603 36.9474 76.1103C37.2874 75.9143 37.7164 75.8843 38.1694 75.8843L38.7424 75.8843 38.7424 76.6613 38.1694 76.6613C37.4534 76.6613 37.2874 76.7063 36.9474 76.8873L36.9474 77.5063z"/>
    <polygon fill="#2C4456" points="43.288 75.16 43.288 78.29 42.511 78.29 42.511 75.16 41.093 75.16 41.093 74.383 44.758 74.383 44.758 75.16"/>
    <path fill="#2C4456" d="M48.7463 77.5063C49.0633 77.5063 49.3573 77.4313 49.3573 77.0533 49.3573 76.6843 49.0553 76.6163 48.7463 76.6163L48.3463 76.6163C47.8943 76.6163 47.4643 76.5863 47.1243 76.3893L47.1243 77.5063 48.7463 77.5063zM47.1243 75.6133C47.4643 75.7933 47.6303 75.8393 48.3463 75.8393L48.7463 75.8393C49.5233 75.8393 50.1343 76.2543 50.1343 77.0683 50.1343 77.8913 49.5233 78.2903 48.7463 78.2903L46.3473 78.2903 46.3473 74.3833 47.1243 74.3833 47.1243 75.6133zM54.9282 77.2045C55.2302 77.4765 55.6602 77.6265 56.0672 77.6265 56.6632 77.6265 57.2522 77.3705 57.4702 76.8195 57.2062 76.6995 57.0032 76.6615 56.3992 76.6615L55.6972 76.6615 55.6972 75.8845 56.3992 75.8845C56.8142 75.8845 57.2062 75.9145 57.5312 76.0725 57.4022 75.3715 56.7462 75.0395 56.0752 75.0395 55.7052 75.0395 55.3202 75.1455 55.0262 75.3485L54.5062 74.7455C54.9362 74.4205 55.5012 74.2555 56.0752 74.2555 57.2442 74.2555 58.3832 74.9945 58.3832 76.3215 58.3832 77.6415 57.2672 78.4115 56.0822 78.4115 55.4862 78.4115 54.9052 78.2225 54.4762 77.8535L54.9282 77.2045zM61.2427 78.2908L60.4207 78.2908 60.4207 74.3828 61.2427 74.3828 61.2427 75.9678 61.4997 75.9678C61.7707 75.9678 61.9447 75.9298 62.0947 75.8088L63.1967 74.3828 64.1927 74.3828 62.7587 76.2158 63.4157 77.1068C63.6487 77.4308 63.9357 77.5068 64.1317 77.5068L64.4037 77.5068 64.4037 78.2908 64.0637 78.2908C63.6567 78.2908 63.3097 78.2678 62.8947 77.6728L62.2087 76.6918C62.0047 76.7668 61.7857 76.7898 61.5747 76.7898L61.2427 76.7898 61.2427 78.2908zM68.2254 75.0547C67.4704 75.0547 66.7314 75.4547 66.7314 76.3367 66.7314 77.2197 67.4864 77.6197 68.2324 77.6197 68.9724 77.6197 69.7184 77.1517 69.7184 76.3067 69.7184 75.4317 68.9644 75.0547 68.2254 75.0547M68.2174 78.4117C67.0334 78.4117 65.9174 77.6417 65.9174 76.3217 65.9174 74.9947 67.0564 74.2547 68.2254 74.2547 69.4024 74.2547 70.5334 74.9417 70.5334 76.2997 70.5334 77.6267 69.4024 78.4117 68.2174 78.4117M75.8555 74.3832L75.8555 78.2912 75.0865 78.2912 75.0865 76.8572C74.7765 76.9782 74.4905 77.0232 74.0825 77.0232 73.0115 77.0232 72.3405 76.6912 72.3405 75.7182 72.3405 75.2662 72.3705 74.8132 72.4915 74.3832L73.2605 74.3832C73.1475 74.7752 73.1095 75.1372 73.1095 75.5152 73.1095 76.0802 73.3965 76.2542 74.1055 76.2542 74.4605 76.2542 74.6415 76.2092 75.0865 76.0732L75.0865 74.3832 75.8555 74.3832z"/>
    <polygon fill="#2C4456" points="81.317 74.383 82.087 74.383 82.087 78.291 81.317 78.291 81.317 75.469 79.04 78.291 78.269 78.291 78.269 74.383 79.04 74.383 79.04 77.189"/>
    <path fill="#2C4456" d="M88.0318,77.8533 C87.6018,78.2223 87.0208,78.4113 86.4248,78.4113 C85.2408,78.4113 84.1238,77.6423 84.1238,76.3223 C84.1238,74.9943 85.2638,74.2553 86.4328,74.2553 C87.0058,74.2553 87.5188,74.3913 87.9488,74.7153 L87.4288,75.3183 C87.1338,75.1153 86.8018,75.0393 86.4328,75.0393 C85.6778,75.0393 84.9468,75.4543 84.9468,76.3373 C84.9468,77.2193 85.6928,77.6273 86.4398,77.6273 C86.8478,77.6273 87.2778,77.4763 87.5788,77.2043 L88.0318,77.8533 Z"/>
    <polygon fill="#2C4456" points="91.807 75.16 91.807 78.29 91.03 78.29 91.03 75.16 89.612 75.16 89.612 74.383 93.278 74.383 93.278 75.16"/>
    <path fill="#2C4456" d="M96.7984 75.0547C96.0434 75.0547 95.3044 75.4547 95.3044 76.3367 95.3044 77.2197 96.0594 77.6197 96.8054 77.6197 97.5454 77.6197 98.2914 77.1517 98.2914 76.3067 98.2914 75.4317 97.5374 75.0547 96.7984 75.0547M96.7904 78.4117C95.6064 78.4117 94.4904 77.6417 94.4904 76.3217 94.4904 74.9947 95.6294 74.2547 96.7984 74.2547 97.9754 74.2547 99.1064 74.9417 99.1064 76.2997 99.1064 77.6267 97.9754 78.4117 96.7904 78.4117M101.7441 78.2908L100.9221 78.2908 100.9221 74.3828 101.7441 74.3828 101.7441 75.9678 102.0011 75.9678C102.2721 75.9678 102.4461 75.9298 102.5961 75.8088L103.6981 74.3828 104.6941 74.3828 103.2601 76.2158 103.9171 77.1068C104.1501 77.4308 104.4371 77.5068 104.6331 77.5068L104.9051 77.5068 104.9051 78.2908 104.5651 78.2908C104.1581 78.2908 103.8111 78.2678 103.3961 77.6728L102.7101 76.6918C102.5061 76.7668 102.2871 76.7898 102.0761 76.7898L101.7441 76.7898 101.7441 78.2908z"/>
  </g>
</svg>
