<svg xmlns="http://www.w3.org/2000/svg" width="184" height="79" viewBox="0 0 184 79">
  <g fill="none" fill-rule="evenodd">
    <path fill="#FFF" d="M40.7144 46.4948C42.8554 46.5228 45.3494 47.2718 47.7744 47.2718 47.8244 47.2718 47.8714 47.2698 47.9204 47.2698 47.0414 43.5178 43.7004 41.8698 40.1994 41.8698 36.0824 41.8698 32.4924 44.1858 32.4924 49.2998 32.4924 54.4138 36.6094 56.7308 40.6844 56.7308 42.9464 56.7308 45.2174 55.8748 46.7794 54.2628L48.6824 58.6278C46.4164 60.3768 43.5404 61.3208 40.6014 61.3208 34.1394 61.3208 28.0474 56.8618 28.0474 49.2128 28.0474 41.5198 33.8194 37.2358 40.1994 37.2358 46.6204 37.2358 52.5734 41.2138 52.5734 49.0818 52.5734 49.7228 52.5374 50.1138 52.4554 50.7108 52.4554 50.7108 50.1994 51.7088 47.7744 51.7088 45.3494 51.7088 42.8554 50.9608 40.7144 50.9328 39.9704 50.9228 39.2874 51.0278 38.7104 51.1678L37.0354 47.3248C37.4354 47.1268 38.8954 46.4708 40.7144 46.4948zM20.3889 38.0961C20.3889 38.0961 18.6679 40.0641 17.6059 43.0471 16.5439 46.0291 15.9969 49.7561 14.7649 53.1221 14.3539 54.2431 13.6959 55.4821 13.0009 56.6371L5.2349 38.2011.1649 38.2011 10.0739 60.9171 15.8429 60.9171C15.8429 60.9171 17.8089 58.0551 19.0419 54.6881 20.2739 51.3221 20.8209 47.5961 21.8829 44.6131 22.9449 41.6311 25.6069 38.0631 25.6069 38.0631L20.3889 38.0961zM127.8617 38.2013L127.8617 46.7683 127.8617 47.2713C126.9947 47.4933 125.8247 47.7153 124.6127 47.7153 122.1877 47.7153 119.6937 46.9663 117.5527 46.9383 116.8027 46.9293 116.1157 47.0353 115.5357 47.1773L115.5357 38.2013 111.0767 38.2013 111.0767 60.8433 115.5357 60.8433 115.5357 51.8383 115.5357 51.6153C116.1157 51.4733 116.8027 51.3663 117.5527 51.3763 119.6937 51.4043 122.1877 52.1533 124.6127 52.1533 125.8247 52.1533 126.9947 51.9313 127.8617 51.7093L127.8617 60.8433 132.3207 60.8433 132.3207 38.2013 127.8617 38.2013zM96.6895 56.9966C92.6355 56.9966 88.5815 54.6366 88.5815 49.5226 88.5815 44.4076 92.5535 42.0036 96.6485 42.0036 98.6515 42.0036 100.7355 42.6136 102.3315 43.7896L104.0735 39.5236C101.9135 38.1576 99.2965 37.4576 96.6485 37.4576 90.3015 37.4576 84.1185 41.7416 84.1185 49.4346 84.1185 57.0836 90.1785 61.5426 96.6075 61.5426 99.4215 61.5426 102.1725 60.7146 104.3765 59.0896L102.6175 54.7806C100.9975 56.2076 98.7885 56.9966 96.6895 56.9966M68.1789 46.5499C63.7649 46.5779 63.3279 45.3859 63.2399 44.2769 63.1169 42.7219 65.1029 41.8349 67.8299 41.8289 70.4159 41.8229 72.6469 42.2789 74.7089 43.2949L76.3269 39.5179C73.4679 37.8919 70.7369 37.4579 67.8729 37.4579 62.8469 37.4579 58.5189 40.1679 58.5189 44.2769 58.5189 49.2159 62.4529 51.0079 67.8729 51.0079 72.5939 51.0079 73.9779 51.8199 73.9789 53.4999 73.9799 55.8599 71.9809 57.2059 67.4289 57.1719 63.9929 57.1459 61.5519 55.3699 59.7769 54.0389L58.0349 58.0739C60.4629 60.2219 64.1379 61.4109 67.4289 61.5429 73.9779 61.8049 78.4379 58.9199 78.4379 53.4999 78.4379 49.8279 76.8629 46.4949 68.1789 46.5499"/>
    <path fill="#E1E33B" d="M144.7065,5.0016 C131.7375,5.0016 121.1865,15.5526 121.1865,28.5216 C121.1865,41.4906 131.7375,52.0416 144.7065,52.0416 C157.6755,52.0416 168.2265,41.4906 168.2265,28.5216 C168.2265,15.5526 157.6755,5.0016 144.7065,5.0016 M144.7065,56.4796 C129.2905,56.4796 116.7485,43.9376 116.7485,28.5216 C116.7485,13.1056 129.2905,0.5636 144.7065,0.5636 C160.1225,0.5636 172.6645,13.1056 172.6645,28.5216 C172.6645,43.9376 160.1225,56.4796 144.7065,56.4796"/>
    <polygon fill="#E1E33B" points="152.284 18.675 157.354 18.675 153.214 29.853 148.332 29.853"/>
    <path fill="#E1E33B" d="M138.0178 18.5699C138.0178 18.5699 139.7388 20.5379 140.8008 23.5209 141.8628 26.5029 142.4088 30.2299 143.6418 33.5959 144.0528 34.7169 144.7108 35.9559 145.4048 37.1109L147.8888 41.3909 142.5638 41.3909C142.5638 41.3909 140.5978 38.5289 139.3648 35.1619 138.1328 31.7959 137.5858 28.0699 136.5238 25.0869 135.4618 22.1039 132.7998 18.5369 132.7998 18.5369L138.0178 18.5699zM177.6058 37.5442C177.1758 39.8112 179.1268 41.7612 181.3928 41.3312 182.6528 41.0932 183.6828 40.0632 183.9208 38.8042 184.3508 36.5372 182.4008 34.5872 180.1338 35.0162 178.8748 35.2552 177.8448 36.2852 177.6058 37.5442"/>
    <path fill="#FFF" d="M34.1951 77.8533C33.7651 78.2223 33.1841 78.4113 32.5881 78.4113 31.4041 78.4113 30.2871 77.6423 30.2871 76.3223 30.2871 74.9943 31.4271 74.2553 32.5961 74.2553 33.1691 74.2553 33.6821 74.3913 34.1121 74.7153L33.5911 75.3183C33.2971 75.1153 32.9651 75.0393 32.5961 75.0393 31.8411 75.0393 31.1101 75.4543 31.1101 76.3373 31.1101 77.2193 31.8561 77.6273 32.6031 77.6273 33.0111 77.6273 33.4401 77.4763 33.7421 77.2043L34.1951 77.8533zM36.9262 77.5063L39.3782 77.5063 39.3782 78.2903 36.1572 78.2903 36.1572 74.3833 39.2342 74.3833 39.2342 75.1603 36.9262 75.1603 36.9262 76.1103C37.2662 75.9143 37.6952 75.8843 38.1482 75.8843L38.7212 75.8843 38.7212 76.6613 38.1482 76.6613C37.4312 76.6613 37.2662 76.7063 36.9262 76.8873L36.9262 77.5063z"/>
    <polygon fill="#FFF" points="43.266 75.16 43.266 78.29 42.489 78.29 42.489 75.16 41.071 75.16 41.071 74.383 44.737 74.383 44.737 75.16"/>
    <path fill="#FFF" d="M48.7251 77.5063C49.0421 77.5063 49.3361 77.4313 49.3361 77.0533 49.3361 76.6843 49.0341 76.6163 48.7251 76.6163L48.3251 76.6163C47.8731 76.6163 47.4431 76.5863 47.1031 76.3893L47.1031 77.5063 48.7251 77.5063zM47.1031 75.6133C47.4431 75.7933 47.6091 75.8393 48.3251 75.8393L48.7251 75.8393C49.5021 75.8393 50.1131 76.2543 50.1131 77.0683 50.1131 77.8913 49.5021 78.2903 48.7251 78.2903L46.3261 78.2903 46.3261 74.3833 47.1031 74.3833 47.1031 75.6133zM54.907 77.2045C55.209 77.4765 55.639 77.6265 56.046 77.6265 56.642 77.6265 57.231 77.3705 57.449 76.8195 57.185 76.6995 56.982 76.6615 56.378 76.6615L55.676 76.6615 55.676 75.8845 56.378 75.8845C56.793 75.8845 57.185 75.9145 57.51 76.0725 57.381 75.3715 56.725 75.0395 56.054 75.0395 55.684 75.0395 55.299 75.1455 55.005 75.3485L54.485 74.7455C54.915 74.4205 55.48 74.2555 56.054 74.2555 57.223 74.2555 58.362 74.9945 58.362 76.3215 58.362 77.6415 57.246 78.4115 56.061 78.4115 55.465 78.4115 54.884 78.2225 54.455 77.8535L54.907 77.2045zM61.2215 78.2908L60.3995 78.2908 60.3995 74.3828 61.2215 74.3828 61.2215 75.9678 61.4785 75.9678C61.7495 75.9678 61.9235 75.9298 62.0735 75.8088L63.1755 74.3828 64.1715 74.3828 62.7375 76.2158 63.3935 77.1068C63.6275 77.4308 63.9145 77.5068 64.1105 77.5068L64.3825 77.5068 64.3825 78.2908 64.0425 78.2908C63.6355 78.2908 63.2885 78.2678 62.8735 77.6728L62.1875 76.6918C61.9835 76.7668 61.7645 76.7898 61.5535 76.7898L61.2215 76.7898 61.2215 78.2908zM68.2043 75.0547C67.4493 75.0547 66.7103 75.4547 66.7103 76.3367 66.7103 77.2197 67.4653 77.6197 68.2113 77.6197 68.9513 77.6197 69.6973 77.1517 69.6973 76.3067 69.6973 75.4317 68.9433 75.0547 68.2043 75.0547M68.1963 78.4117C67.0123 78.4117 65.8963 77.6417 65.8963 76.3217 65.8963 74.9947 67.0353 74.2547 68.2043 74.2547 69.3813 74.2547 70.5123 74.9417 70.5123 76.2997 70.5123 77.6267 69.3813 78.4117 68.1963 78.4117M75.8343 74.3832L75.8343 78.2912 75.0653 78.2912 75.0653 76.8572C74.7553 76.9782 74.4693 77.0232 74.0613 77.0232 72.9903 77.0232 72.3193 76.6912 72.3193 75.7182 72.3193 75.2662 72.3493 74.8132 72.4703 74.3832L73.2393 74.3832C73.1263 74.7752 73.0883 75.1372 73.0883 75.5152 73.0883 76.0802 73.3753 76.2542 74.0843 76.2542 74.4383 76.2542 74.6203 76.2092 75.0653 76.0732L75.0653 74.3832 75.8343 74.3832z"/>
    <polygon fill="#FFF" points="81.296 74.383 82.065 74.383 82.065 78.291 81.296 78.291 81.296 75.469 79.018 78.291 78.248 78.291 78.248 74.383 79.018 74.383 79.018 77.189"/>
    <path fill="#FFF" d="M88.0106,77.8533 C87.5806,78.2223 86.9996,78.4113 86.4036,78.4113 C85.2196,78.4113 84.1036,77.6423 84.1036,76.3223 C84.1036,74.9943 85.2426,74.2553 86.4116,74.2553 C86.9846,74.2553 87.4976,74.3913 87.9276,74.7153 L87.4066,75.3183 C87.1126,75.1153 86.7806,75.0393 86.4116,75.0393 C85.6566,75.0393 84.9256,75.4543 84.9256,76.3373 C84.9256,77.2193 85.6716,77.6273 86.4186,77.6273 C86.8266,77.6273 87.2566,77.4763 87.5576,77.2043 L88.0106,77.8533 Z"/>
    <polygon fill="#FFF" points="91.786 75.16 91.786 78.29 91.009 78.29 91.009 75.16 89.591 75.16 89.591 74.383 93.257 74.383 93.257 75.16"/>
    <path fill="#FFF" d="M96.7772 75.0547C96.0222 75.0547 95.2832 75.4547 95.2832 76.3367 95.2832 77.2197 96.0382 77.6197 96.7842 77.6197 97.5242 77.6197 98.2702 77.1517 98.2702 76.3067 98.2702 75.4317 97.5162 75.0547 96.7772 75.0547M96.7692 78.4117C95.5852 78.4117 94.4692 77.6417 94.4692 76.3217 94.4692 74.9947 95.6082 74.2547 96.7772 74.2547 97.9542 74.2547 99.0852 74.9417 99.0852 76.2997 99.0852 77.6267 97.9542 78.4117 96.7692 78.4117M101.7229 78.2908L100.9009 78.2908 100.9009 74.3828 101.7229 74.3828 101.7229 75.9678 101.9789 75.9678C102.2509 75.9678 102.4249 75.9298 102.5749 75.8088L103.6769 74.3828 104.6729 74.3828 103.2389 76.2158 103.8949 77.1068C104.1289 77.4308 104.4159 77.5068 104.6119 77.5068L104.8839 77.5068 104.8839 78.2908 104.5439 78.2908C104.1369 78.2908 103.7899 78.2678 103.3749 77.6728L102.6889 76.6918C102.4849 76.7668 102.2659 76.7898 102.0549 76.7898L101.7229 76.7898 101.7229 78.2908z"/>
  </g>
</svg>
