<svg xmlns="http://www.w3.org/2000/svg" width="103" height="122" viewBox="0 0 103 122" style="" class="">
  <g fill="none" stroke="#D0D344" fill-rule="evenodd" transform="translate(-14 -6)">
    <path d="M65.1484375,50.1099067 C57.5809314,50.2203511 50.0334451,52.9775178 43.9873043,58.3686267 C31.8949328,69.1510022 29.2637551,87.3247933 37.78125,101.202927 C46.2986224,115.080902 63.4947813,120.63326 78.3173832,114.299587 C93.1398999,107.966071 101.276625,91.5645978 97.5107418,75.6563378 C97.2432288,74.5330711 96.1318108,73.8432321 95.0283199,74.1155392 C93.924829,74.3878463 93.2471351,75.5191822 93.514648,76.6424489 C96.816069,90.5887422 89.7072807,104.895242 76.7128914,110.4476 C63.7184261,116.000116 48.729582,111.149711 41.2626957,98.9840978 C33.7957009,86.8176956 36.1109483,70.9643422 46.7119144,61.5118756 C57.3128016,52.0594089 73.0226157,51.8208489 83.8876957,60.9564978 C84.4500698,61.4356544 85.2208803,61.5729449 85.9096777,61.3166368 C86.5984749,61.0603287 87.1005744,60.449376 87.2267798,59.7139924 C87.3529851,58.9786087 87.0841155,58.2305586 86.5214836,57.7517156 C80.3246642,52.5407889 72.7159436,49.9978844 65.1484375,50.1092756 L65.1484375,50.1099067 Z" class="JaBYCvdA_0"></path>
    <path d="M21.5244145,6.25888667 C17.583961,6.25888667 14.3496094,9.55107778 14.3496094,13.5622622 L14.3496094,120.031338 C14.3496094,124.042522 17.583961,127.334871 21.5244145,127.334871 L109.710937,127.334871 C113.651389,127.334871 116.885742,124.042522 116.885742,120.031338 L116.885742,13.5622622 C116.885742,9.55107778 113.651389,6.25888667 109.710937,6.25888667 L21.5244145,6.25888667 Z M21.5244145,10.44978 L109.710938,10.44978 C111.450427,10.44978 112.768554,11.7908911 112.768554,13.5622622 L112.768554,120.031338 C112.768554,121.802236 111.450434,123.14382 109.710938,123.14382 L21.5244145,123.14382 C19.7849239,123.14382 18.4667961,121.802709 18.4667961,120.031338 L18.4667961,13.5622622 C18.4667961,11.7915222 19.7849161,10.44978 21.5244145,10.44978 Z" class="JaBYCvdA_1"></path>
    <path d="M22.552,35.5L22.552,39.665L114.824,39.665L114.824,35.5Z" class="JaBYCvdA_2"></path>
    <path d="M87.157227 16.7055111C83.2166992 16.7055111 79.9824227 19.9977022 79.9824211 24.0088867 79.9824211 28.0200711 83.2167736 31.3122622 87.157227 31.3122622L101.506836 31.3122622C105.447289 31.3122622 108.681641 28.0200711 108.681641 24.0088867 108.681641 19.9977022 105.447363 16.7055111 101.506836 16.7055111L87.157227 16.7055111zM87.157227 20.8656378L101.506836 20.8656378C103.246252 20.8656378 104.564454 22.2383044 104.564454 24.0088867 104.564454 25.7796267 103.246334 27.1521356 101.506836 27.1521356L87.157227 27.1521356C85.4177363 27.1521356 84.0693356 25.7794689 84.0693356 24.0088867 84.0693356 22.2383044 85.4178045 20.8656378 87.157227 20.8656378zM102.536133 43.8235667C99.1611492 43.8235667 96.3601566 46.6744533 96.3603519 50.1099067 96.3602853 53.54536 99.161236 56.3656378 102.536133 56.3656378 105.911029 56.3656378 108.681708 53.54536 108.681641 50.1099067 108.681835 46.6744533 105.911117 43.8235667 102.536133 43.8235667zM102.536133 48.01446C103.694665 48.01446 104.564521 48.9311489 104.564454 50.1099067 104.564476 51.2885067 103.694625 52.2055111 102.536133 52.2055111 101.377632 52.2055111 100.477516 51.2888222 100.477539 50.1099067 100.477473 48.9313067 101.377593 48.01446 102.536133 48.01446zM49.2246086 85.57914C48.7859229 85.5876677 48.3614896 85.7391926 48.0136711 86.0114511 48.0136711 86.0114511 46.8116926 86.9644289 45.2587895 87.9219822 43.705891 88.8796933 41.7065677 89.7389511 41.0205082 89.77098L41.2021527 93.9311067C43.558069 93.8206622 45.6361261 92.5899956 47.4082086 91.4965956 48.457295 90.8497067 48.6904306 90.6177733 49.2548879 90.2028178 49.8203589 90.6319733 50.0693819 90.8607511 51.1318402 91.5281511 52.9129948 92.6467956 55.0159186 93.9318956 57.4589883 93.9318956 59.902058 93.9318956 61.9747118 92.6460067 63.7558633 91.5281511 64.8183262 90.8607511 65.0673493 90.6319733 65.6328172 90.2028178 66.1996367 90.6319733 66.4286182 90.86864 67.4794964 91.5281511 69.2606495 92.6467956 71.3333018 93.9318956 73.7763714 93.9318956 76.2194411 93.9318956 78.3223665 92.6460067 80.103521 91.5281511 81.1659841 90.8607511 81.415007 90.6319733 81.9804734 90.2028178 82.5449214 90.6177733 82.7780724 90.8497067 83.8271527 91.4965956 85.5992042 92.5899956 87.6775899 93.8211356 90.0332085 93.9311067L90.2148531 89.77098C89.5284975 89.7394244 87.5295029 88.8795356 85.9765718 87.9219822 84.4236408 86.9642711 83.2216886 86.0114511 83.2216886 86.0114511 82.4691884 85.4210877 81.4168582 85.434146 80.6787198 86.0430067 80.6787198 86.0430067 79.4668834 87.0149178 77.9238382 87.9844622 76.3807977 88.9532178 74.3784395 89.7717689 73.7763761 89.7717689 73.1743096 89.7717689 71.1719545 88.9529022 69.6289156 87.9844622 68.085875 87.0157067 66.9043054 86.0430067 66.9043054 86.0430067 66.1532768 85.4270588 65.0820922 85.4270588 64.3310636 86.0430067 64.3310636 86.0430067 63.1494986 87.0149178 61.606455 87.9844622 60.0634145 88.9532178 58.0610548 89.7717689 57.4589929 89.7717689 56.8569264 89.7717689 54.8242998 88.9529022 53.2812593 87.9844622 51.7382188 87.0157067 50.5566507 86.0430067 50.5566507 86.0430067 50.1801084 85.7337949 49.7082946 85.5700503 49.2246117 85.5807178L49.2246086 85.57914z" class="JaBYCvdA_3"></path>
  </g>
<style>.JaBYCvdA_0{stroke-dasharray:363 365;stroke-dashoffset:364;}.start .JaBYCvdA_0{animation:JaBYCvdA_draw 4000ms ease-out 0ms forwards;}.JaBYCvdA_1{stroke-dasharray:844 846;stroke-dashoffset:845;}.start .JaBYCvdA_1{animation:JaBYCvdA_draw 4000ms ease-out 0ms forwards;}.JaBYCvdA_2{stroke-dasharray:193 195;stroke-dashoffset:194;}.start .JaBYCvdA_2{animation:JaBYCvdA_draw 4000ms ease-out 0ms forwards;}.JaBYCvdA_3{stroke-dasharray:294 296;stroke-dashoffset:295;}.start .JaBYCvdA_3{animation:JaBYCvdA_draw 4000ms ease-out 0ms forwards;}@keyframes JaBYCvdA_draw{100%{stroke-dashoffset:0;}}@keyframes JaBYCvdA_fade{0%{stroke-opacity:1;}95.1219512195122%{stroke-opacity:1;}100%{stroke-opacity:0;}}</style></svg>
