<svg xmlns="http://www.w3.org/2000/svg" width="137" height="135" viewBox="0 0 137 135">
  <g fill="#D0D344" fill-rule="evenodd" transform="translate(-2 -.17)">
    <path d="M86.903929,35.941975 C85.7256201,35.9786173 84.7816466,36.93024 84.7545149,38.1088062 C84.6303537,43.9316937 83.1736112,46.272475 80.6983648,48.075875 C78.2231184,49.8788312 74.2518089,50.9709 69.4659429,52.79915 C69.4544056,52.79906 69.4428678,52.79906 69.4313304,52.79915 C65.063335,54.5453062 59.7770122,55.4993687 55.1047951,58.5798812 C50.6659106,61.5059687 45.4702593,65.07505 43.1270108,70.7310875 C41.4555687,74.7652187 41.4555687,79.5328687 43.1270108,83.567 C44.8033652,87.6131125 47.9717934,92.4207 53.1807218,93.2651562 C64.800564,95.15065 76.5398416,86.561425 83.1165139,78.5575062 C83.1282385,78.5428615 83.1397769,78.5280686 83.1511264,78.5131312 C90.7833379,68.7018187 93.7669044,57.6528875 91.948124,46.1593187 C91.3637319,42.5596187 89.0186818,37.2931937 89.0186818,37.2931937 C88.6608958,36.4487963 87.8205259,35.9114892 86.9039334,35.9410875 L86.903929,35.941975 Z M87.4586165,46.5418312 C87.4799165,46.6438937 87.5562859,46.7770188 87.5712846,46.8702063 C89.2036013,57.2002625 86.6489325,66.7781625 79.6669878,75.765875 C73.7978926,82.8991563 62.76471,90.3364063 53.8913519,88.8964375 C51.3209611,88.4793125 48.5660368,85.109475 47.2264354,81.8763125 C46.0544118,79.0474062 46.0544118,75.2666563 47.2264354,72.43775 C48.9044583,68.3872 53.2151124,65.1544813 57.5488237,62.2976188 C61.2189202,59.87785 66.1352886,58.8984937 71.0433322,56.9411125 C75.5622781,55.214925 79.8160079,54.1974062 83.3071267,51.654275 C85.0317655,50.3980187 86.4446699,48.7144313 87.4586121,46.5409438 L87.4586165,46.5418312 Z"/>
    <path d="M67.8452126 66.7271313C67.4207849 66.7286437 67.0056945 66.8518475 66.6491688 67.0821312 58.3895347 72.3050687 51.9966725 77.7569813 48.6044922 84.5720937 45.2123119 91.3872063 45.1070987 99.43905 48.9251903 108.909119 49.3848159 110.04578 50.6787993 110.5947 51.8155213 110.135225 52.9522433 109.67575 53.5013347 108.381839 53.0420099 107.245056 49.546143 98.5741812 49.7635805 92.1943875 52.5739912 86.5481125 55.3844064 80.9018375 61.0782248 75.8590625 69.0239457 70.834925 69.8714338 70.3128998 70.2676158 69.2904045 69.9931067 68.3336437 69.7185976 67.376883 68.8405702 66.7199775 67.8452304 66.7266875L67.8452126 66.7271313zM122.585937 79.0083562C121.802997 79.0343627 121.091783 79.471269 120.714669 80.1578961 120.337555 80.8445231 120.350428 81.679117 120.748537 82.3537875L132.726317 103.371119C136.750393 110.435175 131.894335 118.971594 123.781981 118.971594L109.360106 118.971594C108.559936 118.960264 107.815653 119.38066 107.412261 120.071801 107.00887 120.762941 107.00887 121.617746 107.412261 122.308887 107.815653 123.000028 108.559936 123.420424 109.360106 123.409094L123.781981 123.409094C135.088305 123.409094 142.162111 110.978769 136.574464 101.169675L124.605346 80.1523437C124.201187 79.4213169 123.420739 78.979196 122.585938 79.0083563L122.585937 79.0083562zM78.2976063 118.971594C77.4974364 118.960264 76.7531525 119.38066 76.3497612 120.071801 75.9463698 120.762941 75.9463698 121.617746 76.3497612 122.308887 76.7531525 123.000028 77.4974364 123.420424 78.2976063 123.409094L93.8288563 123.409094C94.6290262 123.420424 95.3733101 123.000028 95.7767015 122.308887 96.1800928 121.617746 96.1800928 120.762941 95.7767015 120.071801 95.3733101 119.38066 94.6290262 118.960264 93.8288563 118.971594L78.2976063 118.971594 78.2976063 118.971594z"/>
    <path d="M87.1119368 108.112144C86.5361201 108.128183 85.9891075 108.367516 85.5865462 108.779544L74.5187999 119.847112C73.6527629 120.713585 73.6527629 122.117953 74.5187999 122.984425L85.5865462 134.060869C86.1428118 134.64148 86.9696502 134.875736 87.7477978 134.673186 88.5259454 134.470635 89.1336342 133.862974 89.3362198 133.084836 89.5388054 132.306697 89.3045864 131.479848 88.7240007 130.923556L79.2249773 121.415769 88.7240007 111.916856C89.376872 111.278486 89.5720383 110.305352 89.215811 109.464602 88.8595838 108.623852 88.0246983 108.087153 87.1119368 108.112144L87.1119368 108.112144zM120.38452 51.4994062C119.415477 51.5378374 118.583651 52.2011197 118.330446 53.1372875L114.490966 66.5625 101.10913 62.9570312C100.331377 62.7109662 99.4813239 62.9114836 98.8955306 63.4791931 98.3097373 64.0469025 98.082672 64.890252 98.3042359 65.6753362 98.5257999 66.4604204 99.1602625 67.0606322 99.9564226 67.2383312L115.444336 71.4246688C116.615947 71.7412043 117.824504 71.0577771 118.157104 69.890625L122.594604 54.359375C122.802428 53.6725693 122.665308 52.9276609 122.226544 52.3598766 121.787781 51.7920922 121.101539 51.471526 120.38452 51.4994062L120.38452 51.4994062z"/>
    <path d="M70.6099837 1.1439875C65.5916682 1.1883625 60.5914488 3.67291875 57.808839 8.6149625L48.6391624 24.91745C48.2199555 25.6099771 48.2111461 26.4758393 48.616176 27.1767522 49.0212059 27.8776652 49.7757944 28.3023899 50.5851308 28.2849904 51.3944672 28.2675909 52.1301051 27.8108286 52.5046376 27.0931562L61.6743186 10.790225C65.6613547 3.70930625 75.5931497 3.64540625 79.6669922 10.6792875L87.9959711 25.0581187C88.3938978 25.7439754 89.1274975 26.1654417 89.9204302 26.1637552 90.7133628 26.1620687 91.445163 25.7374856 91.8401686 25.0499424 92.2351742 24.3623992 92.2333743 23.5163501 91.835447 22.8304938L83.5064681 8.4605375C80.6634151 3.5526625 75.6282992 1.11514375 70.6099837 1.1457625L70.6099837 1.1439875zM98.1450218 36.0719937C97.3639689 36.1050883 96.6579554 36.5467358 96.2864933 37.2345982 95.9150312 37.9224606 95.9329323 38.7550393 96.3336165 39.4263L104.6626 53.7958125 112.991579 68.1746437C113.60672 69.2348857 114.964887 69.5957108 116.025129 68.9805692 117.085371 68.3654275 117.446196 67.0072607 116.831055 65.9470188L108.502076 51.5770625 100.173097 37.198675C99.7628754 36.4714737 98.9791768 36.0360961 98.1450217 36.0719938L98.1450218 36.0719937zM42.5549319 37.5976062C42.3590838 37.5955418 42.1638245 37.6194159 41.9742433 37.6686063L26.2609865 41.8287625C25.4904375 42.0278661 24.8855265 42.6243823 24.6756749 43.3920739 24.4658232 44.1597655 24.6831724 44.98105 25.2452898 45.5444434 25.8074072 46.1078369 26.6281967 46.3270479 27.3963622 46.1189375L40.9775391 42.5219 44.617678 55.9040688C44.9408112 57.0863698 46.1612067 57.782863 47.3435078 57.4597298 48.5258088 57.1365966 49.222302 55.916201 48.8991688 54.7339L44.6870095 39.2372625C44.4256151 38.2738918 43.5531262 37.603638 42.5549319 37.5993813L42.5549319 37.5976062z"/>
    <path d="M41.7402344,39.2962812 C40.9306704,39.2863809 40.1799722,39.7181879 39.7814944,40.4229625 L30.8891602,55.6679937 C30.4587159,56.3538667 30.4360626,57.2197559 30.8300553,57.9271976 C31.2240479,58.6346394 31.9721202,59.0712915 32.7818614,59.066473 C33.5916026,59.0616545 34.3344254,58.6161305 34.7199709,57.90405 L43.6123047,42.6590188 C44.0219889,41.9780849 44.0362591,41.1300541 43.6497172,40.4357218 C43.2631753,39.7413894 42.5348425,39.3067733 41.7402344,39.2962812 L41.7402344,39.2962812 Z M23.9642333,69.7779125 C23.1515821,69.7648245 22.3968007,70.1970675 21.996826,70.9045937 L13.1131591,86.1411937 L4.22082522,101.386669 C-1.47927382,111.158044 5.69196794,123.634519 17.0046385,123.634519 L62.7750228,123.634519 C63.5751927,123.645849 64.3194765,123.225453 64.7228679,122.534312 C65.1262593,121.843171 65.1262593,120.988366 64.7228679,120.297226 C64.3194765,119.606085 63.5751927,119.185689 62.7750228,119.197019 L17.0046385,119.197019 C8.90108141,119.197019 3.96854518,110.621994 8.05163563,103.622725 L16.9439698,88.37725 L25.8363036,73.14065 C26.2459878,72.4597161 26.260258,71.6116854 25.8737161,70.917353 C25.4871742,70.2230206 24.7588414,69.7884046 23.9642333,69.7779125 L23.9642333,69.7779125 Z"/>
    <path fill-rule="nonzero" d="M30.5138515 64.4853062C30.5138515 65.0737554 30.2800909 65.6381032 29.8639945 66.0541996 29.4478981 66.4702959 28.8835502 66.7040563 28.295101 66.7040562 27.7066519 66.7040563 27.142304 66.4702959 26.7262076 66.0541996 26.3101112 65.6381032 26.0763506 65.0737554 26.0763506 64.4853062 26.0763506 63.8968571 26.3101112 63.3325093 26.7262076 62.9164129 27.142304 62.5003166 27.7066519 62.2665562 28.295101 62.2665562 28.8835502 62.2665562 29.4478981 62.5003166 29.8639945 62.9164129 30.2800909 63.3325093 30.5138515 63.8968571 30.5138515 64.4853062L30.5138515 64.4853062zM103.817474 121.1899C103.817456 122.415981 102.824086 123.40865 101.598724 123.40865 100.373352 123.40865 99.3799869 122.415538 99.3799691 121.1899 99.3799869 119.963819 100.373357 118.97115 101.598724 118.97115 102.82409 118.97115 103.817456 119.963819 103.817474 121.1899zM96.1558503 31.1224063C96.1558502 32.347788 95.162482 33.3411562 93.9371003 33.3411563 92.7117185 33.3411562 91.7183503 32.347788 91.7183502 31.1224063 91.7183503 29.8970245 92.7117185 28.9036563 93.9371002 28.9036563 95.162482 28.9036563 96.1558502 29.8970245 96.1558502 31.1224063L96.1558503 31.1224063z"/>
  </g>
</svg>
