<svg xmlns="http://www.w3.org/2000/svg" width="166" height="316" viewBox="0 0 166 316">
  <g fill="#FFF" fill-rule="evenodd" font-family="Arkhip" font-size="26" transform="translate(-3 -9)">
    <text transform="rotate(-.93 10.113 16.197)">
      <tspan x=".613" y="22.697">н</tspan>
    </text>
    <text transform="rotate(9.93 37.501 18.492)">
      <tspan x="27.501" y="24.992">о</tspan>
    </text>
    <text transform="rotate(20.29 63.725 25.628)">
      <tspan x="54.225" y="32.128">в</tspan>
    </text>
    <text transform="rotate(31.457 89.64 38.285)">
      <tspan x="77.683" y="44.84">ы</tspan>
    </text>
    <text transform="rotate(42.55 113.202 56.034)">
      <tspan x="103.202" y="62.534">й</tspan>
    </text>
    <text transform="rotate(58.543 139.755 88.435)">
      <tspan x="130.289" y="94.99">в</tspan>
    </text>
    <text transform="rotate(68.305 150.935 110.675)">
      <tspan x="142.928" y="117.161">з</tspan>
    </text>
    <text transform="rotate(77.03 157.987 133.08)">
      <tspan x="150.487" y="139.58">г</tspan>
    </text>
    <text transform="rotate(86.566 161.48 157.6)">
      <tspan x="151.963" y="164.072">л</tspan>
    </text>
    <text transform="rotate(96.18 160.86 183.705)">
      <tspan x="151.36" y="190.205">я</tspan>
    </text>
    <text transform="rotate(106.49 155.484 210.074)">
      <tspan x="145.484" y="216.574">д</tspan>
    </text>
    <text transform="rotate(122.735 138.07 247.96)">
      <tspan x="128.583" y="254.482">н</tspan>
    </text>
    <text transform="rotate(132.58 121.92 268.97)">
      <tspan x="112.875" y="275.393">а</tspan>
    </text>
    <text transform="rotate(148.14 90.232 295.075)">
      <tspan x="80.732" y="301.575">в</tspan>
    </text>
    <text transform="rotate(157.775 67.605 306.585)">
      <tspan x="59.066" y="313.013">е</tspan>
    </text>
    <text transform="rotate(168.74 40.52 314.616)">
      <tspan x="28.02" y="321.116">щ</tspan>
    </text>
    <text transform="rotate(-179.07 10.386 317.477)">
      <tspan x=".386" y="323.977">и</tspan>
    </text>
  </g>
</svg>
