<svg xmlns="http://www.w3.org/2000/svg" width="184" height="62" viewBox="0 0 184 62">
  <g fill="none" fill-rule="evenodd">
    <path fill="#FFF" fill-rule="nonzero" d="M40.7144,46.4948 C42.8554,46.5228 45.3494,47.2718 47.7744,47.2718 C47.8244,47.2718 47.8714,47.2698 47.9204,47.2698 C47.0414,43.5178 43.7004,41.8698 40.1994,41.8698 C36.0824,41.8698 32.4924,44.1858 32.4924,49.2998 C32.4924,54.4138 36.6094,56.7308 40.6844,56.7308 C42.9464,56.7308 45.2174,55.8748 46.7794,54.2628 L48.6824,58.6278 C46.4164,60.3768 43.5404,61.3208 40.6014,61.3208 C34.1394,61.3208 28.0474,56.8618 28.0474,49.2128 C28.0474,41.5198 33.8194,37.2358 40.1994,37.2358 C46.6204,37.2358 52.5734,41.2138 52.5734,49.0818 C52.5734,49.7228 52.5374,50.1138 52.4554,50.7108 C52.4554,50.7108 50.1994,51.7088 47.7744,51.7088 C45.3494,51.7088 42.8554,50.9608 40.7144,50.9328 C39.9704,50.9228 39.2874,51.0278 38.7104,51.1678 L37.0354,47.3248 C37.4354,47.1268 38.8954,46.4708 40.7144,46.4948 Z M20.3889,38.0961 C20.3889,38.0961 18.6679,40.0641 17.6059,43.0471 C16.5439,46.0291 15.9969,49.7561 14.7649,53.1221 C14.3539,54.2431 13.6959,55.4821 13.0009,56.6371 L5.2349,38.2011 L0.1649,38.2011 L10.0739,60.9171 L15.8429,60.9171 C15.8429,60.9171 17.8089,58.0551 19.0419,54.6881 C20.2739,51.3221 20.8209,47.5961 21.8829,44.6131 C22.9449,41.6311 25.6069,38.0631 25.6069,38.0631 L20.3889,38.0961 Z M127.8617,38.2013 L127.8617,46.7683 L127.8617,47.2713 C126.9947,47.4933 125.8247,47.7153 124.6127,47.7153 C122.1877,47.7153 119.6937,46.9663 117.5527,46.9383 C116.8027,46.9293 116.1157,47.0353 115.5357,47.1773 L115.5357,38.2013 L111.0767,38.2013 L111.0767,60.8433 L115.5357,60.8433 L115.5357,51.8383 L115.5357,51.6153 C116.1157,51.4733 116.8027,51.3663 117.5527,51.3763 C119.6937,51.4043 122.1877,52.1533 124.6127,52.1533 C125.8247,52.1533 126.9947,51.9313 127.8617,51.7093 L127.8617,60.8433 L132.3207,60.8433 L132.3207,38.2013 L127.8617,38.2013 Z M96.6895,56.9966 C92.6355,56.9966 88.5815,54.6366 88.5815,49.5226 C88.5815,44.4076 92.5535,42.0036 96.6485,42.0036 C98.6515,42.0036 100.7355,42.6136 102.3315,43.7896 L104.0735,39.5236 C101.9135,38.1576 99.2965,37.4576 96.6485,37.4576 C90.3015,37.4576 84.1185,41.7416 84.1185,49.4346 C84.1185,57.0836 90.1785,61.5426 96.6075,61.5426 C99.4215,61.5426 102.1725,60.7146 104.3765,59.0896 L102.6175,54.7806 C100.9975,56.2076 98.7885,56.9966 96.6895,56.9966 L96.6895,56.9966 Z M68.1789,46.5499 C63.7649,46.5779 63.3279,45.3859 63.2399,44.2769 C63.1169,42.7219 65.1029,41.8349 67.8299,41.8289 C70.4159,41.8229 72.6469,42.2789 74.7089,43.2949 L76.3269,39.5179 C73.4679,37.8919 70.7369,37.4579 67.8729,37.4579 C62.8469,37.4579 58.5189,40.1679 58.5189,44.2769 C58.5189,49.2159 62.4529,51.0079 67.8729,51.0079 C72.5939,51.0079 73.9779,51.8199 73.9789,53.4999 C73.9799,55.8599 71.9809,57.2059 67.4289,57.1719 C63.9929,57.1459 61.5519,55.3699 59.7769,54.0389 L58.0349,58.0739 C60.4629,60.2219 64.1379,61.4109 67.4289,61.5429 C73.9779,61.8049 78.4379,58.9199 78.4379,53.4999 C78.4379,49.8279 76.8629,46.4949 68.1789,46.5499 L68.1789,46.5499 Z"/>
    <path fill="#E1E33B" fill-rule="nonzero" d="M144.7065,5.0016 C131.7375,5.0016 121.1865,15.5526 121.1865,28.5216 C121.1865,41.4906 131.7375,52.0416 144.7065,52.0416 C157.6755,52.0416 168.2265,41.4906 168.2265,28.5216 C168.2265,15.5526 157.6755,5.0016 144.7065,5.0016 M144.7065,56.4796 C129.2905,56.4796 116.7485,43.9376 116.7485,28.5216 C116.7485,13.1056 129.2905,0.5636 144.7065,0.5636 C160.1225,0.5636 172.6645,13.1056 172.6645,28.5216 C172.6645,43.9376 160.1225,56.4796 144.7065,56.4796"/>
    <polygon fill="#E1E33B" fill-rule="nonzero" points="152.284 18.675 157.354 18.675 153.214 29.853 148.332 29.853"/>
    <path fill="#E1E33B" fill-rule="nonzero" d="M138.0178,18.5699 C138.0178,18.5699 139.7388,20.5379 140.8008,23.5209 C141.8628,26.5029 142.4088,30.2299 143.6418,33.5959 C144.0528,34.7169 144.7108,35.9559 145.4048,37.1109 L147.8888,41.3909 L142.5638,41.3909 C142.5638,41.3909 140.5978,38.5289 139.3648,35.1619 C138.1328,31.7959 137.5858,28.0699 136.5238,25.0869 C135.4618,22.1039 132.7998,18.5369 132.7998,18.5369 L138.0178,18.5699 Z M177.6058,37.5442 C177.1758,39.8112 179.1268,41.7612 181.3928,41.3312 C182.6528,41.0932 183.6828,40.0632 183.9208,38.8042 C184.3508,36.5372 182.4008,34.5872 180.1338,35.0162 C178.8748,35.2552 177.8448,36.2852 177.6058,37.5442 L177.6058,37.5442 Z"/>
  </g>
</svg>
