<svg xmlns="http://www.w3.org/2000/svg" width="184" height="62" viewBox="0 0 184 62">
  <g fill="none" fill-rule="evenodd">
    <path fill="#2C4456" d="M40.7356 46.4948C38.9166 46.4708 37.4566 47.1268 37.0566 47.3248L38.7316 51.1678C39.3086 51.0278 39.9916 50.9228 40.7356 50.9328 42.8766 50.9608 45.3706 51.7088 47.7956 51.7088 50.2206 51.7088 52.4756 50.7108 52.4756 50.7108 52.5586 50.1138 52.5936 49.7228 52.5936 49.0818 52.5936 41.2138 46.6416 37.2358 40.2206 37.2358 33.8406 37.2358 28.0686 41.5198 28.0686 49.2128 28.0686 56.8618 34.1606 61.3208 40.6226 61.3208 43.5616 61.3208 46.4376 60.3768 48.7036 58.6278L46.8006 54.2628C45.2386 55.8748 42.9676 56.7308 40.7056 56.7308 36.6306 56.7308 32.5136 54.4138 32.5136 49.2998 32.5136 44.1858 36.1036 41.8698 40.2206 41.8698 43.7216 41.8698 47.0626 43.5178 47.9416 47.2698 47.8926 47.2698 47.8456 47.2718 47.7956 47.2718 45.3706 47.2718 42.8766 46.5228 40.7356 46.4948M20.41 38.0961C20.41 38.0961 18.689 40.0641 17.627 43.0471 16.565 46.0291 16.018 49.7561 14.786 53.1221 14.375 54.2431 13.717 55.4821 13.023 56.6371L5.256 38.2011.186 38.2011 10.095 60.9171 15.864 60.9171C15.864 60.9171 17.83 58.0551 19.063 54.6881 20.295 51.3221 20.842 47.5961 21.904 44.6131 22.966 41.6311 25.628 38.0631 25.628 38.0631L20.41 38.0961zM127.8829 38.2013L127.8829 46.7683 127.8829 47.2713C127.0159 47.4933 125.8459 47.7153 124.6339 47.7153 122.2089 47.7153 119.7149 46.9663 117.5739 46.9383 116.8239 46.9293 116.1369 47.0353 115.5569 47.1773L115.5569 38.2013 111.0979 38.2013 111.0979 60.8433 115.5569 60.8433 115.5569 51.8383 115.5569 51.6153C116.1369 51.4733 116.8239 51.3663 117.5739 51.3763 119.7149 51.4043 122.2089 52.1533 124.6339 52.1533 125.8459 52.1533 127.0159 51.9313 127.8829 51.7093L127.8829 60.8433 132.3419 60.8433 132.3419 38.2013 127.8829 38.2013zM96.7107 56.9966C92.6567 56.9966 88.6027 54.6366 88.6027 49.5226 88.6027 44.4076 92.5747 42.0036 96.6697 42.0036 98.6727 42.0036 100.7567 42.6136 102.3527 43.7896L104.0947 39.5236C101.9347 38.1576 99.3177 37.4576 96.6697 37.4576 90.3227 37.4576 84.1397 41.7416 84.1397 49.4346 84.1397 57.0836 90.1997 61.5426 96.6287 61.5426 99.4427 61.5426 102.1937 60.7146 104.3977 59.0896L102.6387 54.7806C101.0187 56.2076 98.8097 56.9966 96.7107 56.9966M68.2001 46.5499C63.7851 46.5779 63.3491 45.3859 63.2611 44.2769 63.1381 42.7219 65.1241 41.8349 67.8501 41.8289 70.4371 41.8229 72.6681 42.2789 74.7301 43.2949L76.3481 39.5179C73.4891 37.8919 70.7581 37.4579 67.8941 37.4579 62.8681 37.4579 58.5401 40.1679 58.5401 44.2769 58.5401 49.2159 62.4741 51.0079 67.8941 51.0079 72.6151 51.0079 73.9991 51.8199 74.0001 53.4999 74.0011 55.8599 72.0021 57.2059 67.4501 57.1719 64.0141 57.1459 61.5731 55.3699 59.7981 54.0389L58.0561 58.0739C60.4841 60.2219 64.1591 61.4109 67.4501 61.5429 73.9991 61.8049 78.4591 58.9199 78.4591 53.4999 78.4591 49.8279 76.8841 46.4949 68.2001 46.5499"/>
    <path fill="#E1E33B" d="M144.7278,5.0016 C131.7588,5.0016 121.2078,15.5526 121.2078,28.5216 C121.2078,41.4906 131.7588,52.0416 144.7278,52.0416 C157.6968,52.0416 168.2478,41.4906 168.2478,28.5216 C168.2478,15.5526 157.6968,5.0016 144.7278,5.0016 M144.7278,56.4796 C129.3118,56.4796 116.7698,43.9376 116.7698,28.5216 C116.7698,13.1056 129.3118,0.5636 144.7278,0.5636 C160.1438,0.5636 172.6858,13.1056 172.6858,28.5216 C172.6858,43.9376 160.1438,56.4796 144.7278,56.4796"/>
    <polygon fill="#E1E33B" points="152.305 18.675 157.375 18.675 153.235 29.853 148.353 29.853"/>
    <path fill="#E1E33B" d="M138.039 18.5699C138.039 18.5699 139.76 20.5379 140.822 23.5209 141.884 26.5029 142.431 30.2299 143.663 33.5959 144.074 34.7169 144.732 35.9559 145.426 37.1109L147.91 41.3909 142.585 41.3909C142.585 41.3909 140.619 38.5289 139.386 35.1619 138.154 31.7959 137.607 28.0699 136.545 25.0869 135.483 22.1039 132.821 18.5369 132.821 18.5369L138.039 18.5699zM177.627 37.5442C177.197 39.8112 179.148 41.7612 181.414 41.3312 182.674 41.0932 183.704 40.0632 183.942 38.8042 184.372 36.5372 182.421 34.5872 180.155 35.0162 178.896 35.2552 177.866 36.2852 177.627 37.5442"/>
  </g>
</svg>
